<?xml version="1.0" encoding="utf-8"?>
<!-- Generator: Adobe Illustrator 27.5.0, SVG Export Plug-In . SVG Version: 6.00 Build 0)  -->
<svg version="1.1" xmlns="http://www.w3.org/2000/svg" xmlns:xlink="http://www.w3.org/1999/xlink" x="0px" y="0px"
	 viewBox="0 0 3710 3710" style="enable-background:new 0 0 3710 3710;" xml:space="preserve">

<g id="Illustration">
	<g>
		<linearGradient id="SVGID_1_" gradientUnits="userSpaceOnUse" x1="3610.5862" y1="4081.4114" x2="1119.1118" y2="987.1565">
			<stop  offset="0" style="stop-color:#5778de"/>
			<stop  offset="1" style="stop-color:#0c2f9c"/>
		</linearGradient>
		<path style="fill:url(#SVGID_1_);" d="M2925.166,2861.149c-57.228,60.247-111.377,99.1-154.159,129.797
			c-502.893,360.831-1097.948,255.651-1224.415,229.964c-186.751-37.93-547.736-111.248-808.721-418.162
			c-394.85-464.335-333.366-1195.882-27.094-1678.786c56.022-88.331,351.946-578.591,953.411-657.214
			c364-47.581,788.307,48.385,1095.578,305.817C3404.757,1312.939,3358.841,2404.59,2925.166,2861.149z"/>
		<g>
			<g>
				<g style="opacity:0.3;">
					<path style="fill:#BDD0FB;" d="M875.899,829.269c-0.204,5.51-4.838,9.809-10.345,9.603
						c-10.702-0.397-21.579-0.337-32.333,0.181c-5.441,0.263-10.073-3.884-10.437-9.295c-0.004-0.064-0.009-0.128-0.013-0.194
						c-0.265-5.505,3.984-10.183,9.491-10.448c11.318-0.545,22.77-0.61,34.036-0.19c5.151,0.19,9.246,4.258,9.585,9.291
						C875.906,828.564,875.914,828.915,875.899,829.269z M781.055,845.167c-10.577,1.978-21.169,4.427-31.491,7.283
						c-5.309,1.469-10.809-1.644-12.28-6.957c-1.457-5.337,1.648-10.811,6.961-12.281c10.859-3.005,22.009-5.584,33.138-7.667
						c5.418-1.013,10.632,2.559,11.646,7.977c0.073,0.394,0.123,0.787,0.149,1.176C789.512,839.674,786.08,844.227,781.055,845.167z
						 M700.067,869.934c-9.844,4.271-19.621,9.022-29.065,14.125c-4.848,2.62-10.905,0.812-13.525-4.036
						c-2.612-4.847-0.812-10.902,4.037-13.525c9.945-5.374,20.244-10.378,30.609-14.874c5.057-2.194,10.933,0.128,13.13,5.183
						c0.467,1.078,0.73,2.193,0.804,3.302C706.331,864.2,704.045,868.208,700.067,869.934z M626.652,912.192
						c-8.652,6.371-17.125,13.193-25.19,20.272c-4.143,3.635-10.45,3.226-14.085-0.916c-3.632-4.146-3.22-10.448,0.916-14.085
						c8.493-7.454,17.415-14.635,26.517-21.343c4.437-3.268,10.686-2.321,13.955,2.116c1.169,1.588,1.8,3.407,1.923,5.239
						C630.909,906.765,629.5,910.091,626.652,912.192z M564.48,969.752c-7.003,8.114-13.759,16.643-20.073,25.352
						c-3.239,4.462-9.479,5.454-13.941,2.218c-4.465-3.238-5.456-9.479-2.216-13.939c6.643-9.161,13.752-18.135,21.121-26.673
						c3.599-4.173,9.902-4.636,14.075-1.033c2.103,1.814,3.264,4.315,3.437,6.884C567.054,965.089,566.267,967.682,564.48,969.752z
						 M516.595,1039.633c-5.043,9.475-9.74,19.284-13.964,29.157c-2.168,5.067-8.035,7.42-13.099,5.252
						c-5.069-2.167-7.422-8.03-5.254-13.101c4.443-10.39,9.39-20.716,14.697-30.687c2.591-4.865,8.633-6.71,13.5-4.12
						c3.161,1.682,5.045,4.822,5.269,8.15C517.864,1036.079,517.504,1037.927,516.595,1039.633z M513.362,1410.232
						c-4.853,2.612-10.906,0.796-13.519-4.058c-5.35-9.944-10.339-20.257-14.824-30.65c-2.185-5.062,0.147-10.935,5.209-13.118
						c5.058-2.185,10.931,0.147,13.116,5.207c4.259,9.868,8.997,19.66,14.079,29.102c0.697,1.295,1.079,2.674,1.172,4.053
						C518.848,1404.553,516.922,1408.318,513.362,1410.232z M485.41,1118.343c-2.808,10.354-5.201,20.955-7.108,31.513
						c-0.983,5.425-6.175,9.027-11.599,8.046c-5.427-0.981-9-6.172-8.044-11.599c2.01-11.117,4.53-22.282,7.488-33.185
						c1.443-5.319,6.924-8.462,12.246-7.019c4.219,1.144,7.069,4.83,7.347,8.961C485.812,1116.136,485.707,1117.243,485.41,1118.343
						z M478.969,1330.337c-5.314,1.459-10.807-1.668-12.266-6.983c-2.987-10.888-5.543-22.049-7.605-33.171
						c-1.029-5.421,2.579-10.626,7.997-11.631c5.418-1.003,10.626,2.577,11.631,7.997c1.958,10.57,4.387,21.177,7.228,31.524
						c0.181,0.66,0.288,1.323,0.333,1.98C486.599,1324.689,483.623,1329.06,478.969,1330.337z M472.6,1202.033
						c-0.42,10.715-0.384,21.588,0.112,32.322c0.257,5.507-4,10.176-9.508,10.431c-5.434,0.25-10.054-3.893-10.417-9.296
						c-0.005-0.07-0.01-0.142-0.01-0.212c-0.526-11.3-0.566-22.748-0.125-34.025c0.219-5.508,4.858-9.798,10.366-9.583
						c5.144,0.201,9.227,4.265,9.565,9.291C472.606,1201.313,472.611,1201.672,472.6,1202.033z"/>
					<path style="fill:#BDD0FB;" d="M557.252,1459.222c-0.132-1.96-0.841-3.904-2.163-5.555c-3.216-4.017-6.399-8.169-9.47-12.339
						c-3.264-4.44-9.514-5.393-13.952-2.126c-4.442,3.264-5.4,9.516-2.124,13.953c3.226,4.388,6.575,8.753,9.958,12.982
						c3.443,4.303,9.726,5.001,14.027,1.559C556.183,1465.573,557.464,1462.373,557.252,1459.222z"/>
				</g>
				<g style="opacity:0.3;">
					<path style="fill:#BDD0FB;" d="M825.039,1603.701c-0.323-4.806-4.093-8.801-9.043-9.258c-5.123-0.47-10.324-1.056-15.453-1.742
						c-5.465-0.73-10.485,3.107-11.216,8.569c-0.733,5.486,3.109,10.485,8.57,11.216c5.401,0.721,10.878,1.339,16.272,1.835
						c5.489,0.504,10.347-3.537,10.853-9.026C825.071,1604.757,825.074,1604.224,825.039,1603.701z"/>
					<path style="fill:#BDD0FB;" d="M1249.61,1210.576c0.101,5.511-4.286,10.061-9.8,10.16c-5.51,0.099-10.048-4.282-10.158-9.798
						c-0.19-10.492-0.833-21.139-1.907-31.767c-0.571-5.455,3.443-10.379,8.927-10.934c5.484-0.555,10.379,3.441,10.935,8.925
						c0.466,4.605,0.854,9.199,1.162,13.781C1249.21,1197.481,1249.494,1204.086,1249.61,1210.576z M1231.11,1135.585
						c-5.356,1.291-10.747-2.006-12.038-7.364c-2.482-10.287-5.421-20.58-8.745-30.594c-1.75-5.22,1.096-10.88,6.328-12.617
						c5.229-1.735,10.878,1.099,12.613,6.329c3.5,10.543,6.597,21.378,9.205,32.204c0.135,0.561,0.221,1.124,0.258,1.68
						C1239.052,1129.987,1235.909,1134.428,1231.11,1135.585z M1246.874,1264.892c-1.317,11.025-3.124,22.146-5.375,33.053
						c-1.114,5.398-6.393,8.872-11.794,7.758c-5.397-1.114-8.863-6.392-7.757-11.792c2.14-10.358,3.856-20.916,5.104-31.385
						c0.656-5.473,5.62-9.381,11.096-8.727c4.841,0.579,8.456,4.534,8.772,9.229
						C1246.961,1263.638,1246.948,1264.262,1246.874,1264.892z M1204.091,1054.366c-4.943,2.437-10.929,0.405-13.363-4.539
						c-4.671-9.478-9.804-18.867-15.253-27.909c-2.85-4.724-1.328-10.853,3.396-13.699c4.72-2.846,10.851-1.326,13.697,3.394
						c5.74,9.523,11.145,19.412,16.064,29.39c0.593,1.206,0.925,2.473,1.01,3.737
						C1209.904,1048.655,1207.828,1052.524,1204.091,1054.366z M1226.884,1350.288c-3.708,10.459-7.916,20.906-12.508,31.051
						c-2.272,5.021-8.182,7.25-13.203,4.979c-5.025-2.272-7.252-8.186-4.98-13.207c4.36-9.638,8.358-19.56,11.878-29.493
						c1.843-5.196,7.548-7.914,12.743-6.072c3.871,1.373,6.366,4.889,6.625,8.74
						C1227.527,1347.605,1227.353,1348.965,1226.884,1350.288z M1188.65,1429.23c-5.919,9.418-12.304,18.696-18.978,27.577
						c-3.314,4.406-9.568,5.294-13.976,1.982c-4.412-3.317-5.298-9.572-1.98-13.974c6.34-8.438,12.409-17.256,18.035-26.205
						c2.933-4.667,9.094-6.072,13.761-3.14c2.811,1.769,4.439,4.709,4.646,7.787
						C1190.295,1425.288,1189.814,1427.378,1188.65,1429.23z M1134.119,1497.967c-7.833,7.91-16.089,15.577-24.532,22.788
						c-4.194,3.58-10.491,3.082-14.071-1.108c-3.584-4.197-3.082-10.493,1.108-14.07c8.026-6.851,15.866-14.136,23.311-21.654
						c3.878-3.917,10.198-3.947,14.113-0.069c1.8,1.782,2.779,4.076,2.936,6.417
						C1137.17,1493.028,1136.215,1495.849,1134.119,1497.967z M1065.893,1553.17c-9.372,6.006-19.11,11.68-28.944,16.864
						c-4.875,2.571-10.913,0.703-13.484-4.174c-2.567-4.867-0.699-10.911,4.176-13.482c9.335-4.922,18.581-10.31,27.485-16.016
						c4.641-2.973,10.812-1.623,13.785,3.019c0.939,1.466,1.446,3.083,1.555,4.705
						C1070.703,1547.601,1069.069,1551.133,1065.893,1553.17z M987.163,1592.052c-10.44,3.784-21.18,7.169-31.925,10.065
						c-5.323,1.434-10.802-1.717-12.235-7.04c-1.428-5.306,1.715-10.798,7.038-12.233c10.208-2.75,20.409-5.967,30.326-9.559
						c5.18-1.878,10.904,0.802,12.781,5.983c0.327,0.902,0.518,1.821,0.579,2.733
						C994.018,1586.328,991.443,1590.502,987.163,1592.052z M901.906,1612.677c-8.116,1.046-16.364,1.855-24.513,2.404
						c-2.952,0.199-5.895,0.364-8.836,0.497c-5.504,0.25-10.275-3.937-10.42-9.516c-0.253-5.506,4.008-10.173,9.516-10.424
						c2.793-0.128,5.596-0.283,8.4-0.472c7.749-0.521,15.586-1.289,23.302-2.283c5.466-0.706,10.469,3.156,11.173,8.622
						c0.026,0.206,0.047,0.411,0.061,0.615C910.94,1607.341,907.167,1612.001,901.906,1612.677z"/>
					<path style="fill:#BDD0FB;" d="M1163.385,972.455c-0.133-1.98-0.855-3.938-2.194-5.596c-3.397-4.202-6.947-8.412-10.552-12.512
						c-3.639-4.141-9.945-4.547-14.085-0.908c-4.139,3.641-4.551,9.942-0.908,14.085c3.424,3.896,6.795,7.895,10.021,11.883
						c3.461,4.286,9.746,4.953,14.033,1.488C1162.329,978.77,1163.596,975.586,1163.385,972.455z"/>
				</g>
				<g>
					<path style="fill:#BDD0FB;" d="M993.258,954.251c-1.624-1.151-3.798-1.147-5.416,0.012l-46.157,33.056
						c-24.551-10.01-50.874-16.178-78.106-17.867l-27.211-49.785c-0.955-1.746-2.912-2.694-4.874-2.361l-67.137,11.397
						c-1.963,0.332-3.498,1.874-3.822,3.837l-9.258,55.976c-25.149,10.581-47.963,25.09-67.835,42.641l-54.479-15.972
						c-1.91-0.559-3.964,0.154-5.116,1.777l-39.415,55.532c-1.151,1.622-1.148,3.798,0.012,5.416l33.056,46.156
						c-10.011,24.55-16.179,50.874-17.868,78.106l-49.785,27.211c-1.747,0.955-2.695,2.911-2.362,4.874l11.396,67.138
						c0.334,1.962,1.875,3.496,3.838,3.821l55.977,9.258c10.581,25.149,25.09,47.964,42.642,67.834l-15.973,54.479
						c-0.56,1.909,0.153,3.964,1.777,5.116l55.532,39.415c1.622,1.152,3.798,1.146,5.415-0.011l46.158-33.057
						c24.55,10.012,50.873,16.178,78.106,17.867l27.212,49.785c0.954,1.747,2.911,2.695,4.873,2.362l67.138-11.397
						c1.962-0.333,3.496-1.874,3.821-3.837l9.258-55.976c25.149-10.581,47.963-25.09,67.835-42.642l54.479,15.972
						c1.909,0.561,3.964-0.153,5.116-1.776l39.414-55.532c1.152-1.623,1.147-3.797-0.011-5.415l-33.056-46.157
						c10.011-24.55,16.178-50.873,17.868-78.106l49.785-27.211c1.745-0.954,2.694-2.911,2.361-4.874l-11.398-67.137
						c-0.333-1.962-1.874-3.497-3.838-3.821l-55.975-9.258c-10.581-25.149-25.091-47.962-42.642-67.834l15.972-54.479
						c0.56-1.909-0.154-3.964-1.776-5.116L993.258,954.251z"/>
					<path style="opacity:0.7;fill:#FFFFFF;" d="M916.204,1223.195c-2.985,37.625-36.019,65.809-73.648,62.826
						c-18.227-1.444-34.801-9.901-46.666-23.812c-11.865-13.907-17.608-31.605-16.158-49.834
						c2.985-37.626,36.019-65.809,73.648-62.826c34.231,2.715,60.646,30.303,62.886,63.594
						C916.488,1216.443,916.472,1219.803,916.204,1223.195z M808.039,1251.846c9.099,10.666,21.804,17.149,35.781,18.257
						c28.845,2.286,54.18-19.323,56.466-48.17c2.297-28.856-19.323-54.179-48.172-56.467c-28.845-2.286-54.18,19.323-56.466,48.17
						c-0.207,2.616-0.22,5.213-0.047,7.784C796.354,1232.585,800.646,1243.177,808.039,1251.846z"/>
					<path style="opacity:0.7;fill:#FFFFFF;" d="M1015.003,1207.9c-0.385-5.718-1.059-11.45-2.031-17.177l0,0
						c-0.305-1.802-0.641-3.601-1.004-5.393c-1.794-8.837-4.289-17.517-7.444-25.906c-0.043-0.114-0.086-0.229-0.128-0.343
						c-0.123-0.324-0.247-0.647-0.374-0.971c-0.242-0.63-0.491-1.258-0.74-1.884c-0.658-1.647-2.29-2.614-3.97-2.503
						c-0.408,0.027-0.82,0.12-1.22,0.279c-2.047,0.818-3.035,3.143-2.222,5.188c4.214,10.534,7.318,21.592,9.23,32.868
						c9.518,56.01-11.4,110.274-50.689,145.835c-21.851,19.782-49.389,33.776-80.542,39.063c-5.463,0.929-10.932,1.574-16.386,1.939
						c-36.703,2.466-72.838-7.681-103.239-29.261c-34.923-24.786-58.104-61.689-65.271-103.908
						c-14.793-87.197,44.078-170.104,131.231-184.898c5.374-0.913,10.774-1.549,16.177-1.911
						c23.413-1.572,46.909,1.997,68.79,10.532c0.566,0.22,1.149,0.304,1.717,0.264c1.494-0.101,2.872-1.043,3.451-2.532
						c0.795-2.058-0.208-4.37-2.27-5.171c-22.972-8.961-47.642-12.71-72.221-11.06c-5.671,0.38-11.339,1.048-16.979,2.004
						c-91.504,15.532-153.296,102.636-137.77,194.106c7.524,44.324,31.86,83.063,68.522,109.083
						c31.916,22.656,69.85,33.307,108.382,30.72c5.726-0.385,11.467-1.063,17.2-2.035c44.326-7.526,83.067-31.86,109.087-68.521
						C1006.947,1284.385,1017.596,1246.439,1015.003,1207.9z"/>
				</g>
			</g>
			<g>
				<g style="opacity:0.3;">
					<path style="fill:#BDD0FB;" d="M1115.427,470.746c-0.179-2.661-2.08-4.995-4.817-5.601c-5.108-1.134-10.322-2.129-15.493-2.954
						c-3.361-0.537-6.519,1.751-7.059,5.115c-0.551,3.365,1.754,6.522,5.115,7.059c4.928,0.787,9.897,1.735,14.772,2.816
						c3.32,0.738,6.611-1.359,7.353-4.682C1115.427,471.907,1115.465,471.319,1115.427,470.746z"/>
					<path style="fill:#BDD0FB;" d="M1068.4,465.401c-0.121,3.402-2.971,6.064-6.375,5.946c-8.587-0.294-17.289-0.152-25.86,0.425
						c-1.808,0.122-3.62,0.265-5.438,0.427c-3.388,0.297-6.381-2.207-6.682-5.599c-0.156-3.218,2.207-6.381,5.602-6.685
						c1.901-0.167,3.798-0.316,5.69-0.443c8.985-0.605,18.109-0.754,27.114-0.443c3.187,0.108,5.727,2.622,5.937,5.739
						C1068.401,464.975,1068.403,465.186,1068.4,465.401z M999.769,476.849c-10.189,2.173-20.334,4.995-30.151,8.392
						c-3.219,1.112-6.724-0.591-7.84-3.81c-1.103-3.202,0.591-6.728,3.81-7.841c10.288-3.561,20.925-6.521,31.608-8.797
						c3.331-0.71,6.605,1.414,7.318,4.745c0.062,0.291,0.099,0.588,0.119,0.879C1004.836,473.425,1002.803,476.202,999.769,476.849z
						 M940.728,497.303c-9.332,4.595-18.47,9.826-27.171,15.548c-2.842,1.869-6.666,1.079-8.535-1.763
						c-1.875-2.854-1.088-6.666,1.761-8.538c9.122-6.002,18.714-11.486,28.496-16.307c3.054-1.503,6.753-0.249,8.256,2.805
						c0.363,0.745,0.567,1.528,0.62,2.308C944.316,493.774,943.035,496.164,940.728,497.303z M888.516,531.638
						c-7.932,6.754-15.518,14.064-22.533,21.719c-2.305,2.511-6.203,2.68-8.71,0.378c-2.502-2.296-2.679-6.197-0.381-8.708
						c7.363-8.031,15.312-15.691,23.632-22.776c2.591-2.208,6.485-1.893,8.693,0.698c0.885,1.047,1.368,2.303,1.453,3.576
						C890.797,528.408,890.063,530.321,888.516,531.638z M846.269,577.68c-6.048,8.476-11.625,17.404-16.586,26.54
						c-1.621,2.99-5.365,4.099-8.358,2.475c-2.993-1.624-4.108-5.365-2.475-8.359c5.196-9.575,11.045-18.934,17.38-27.819
						c1.98-2.769,5.828-3.415,8.597-1.439c1.565,1.117,2.453,2.831,2.573,4.609C847.492,575.061,847.129,576.473,846.269,577.68z
						 M816.479,632.582c-3.801,9.683-7.031,19.692-9.599,29.757c-0.84,3.296-4.199,5.29-7.496,4.447
						c-3.297-0.843-5.284-4.188-4.451-7.498c2.693-10.552,6.083-21.055,10.069-31.212c1.247-3.167,4.822-4.729,7.989-3.485
						c2.293,0.901,3.745,3.024,3.9,5.327C816.951,630.798,816.824,631.705,816.479,632.582z M801.027,693.077
						c-1.304,10.287-1.979,20.794-2.001,31.23c-0.012,3.404-2.777,6.157-6.181,6.148c-3.403-0.006-6.105-2.768-6.154-6.18
						c0.03-10.94,0.737-21.956,2.104-32.746c0.43-3.377,3.515-5.769,6.892-5.341c2.97,0.376,5.179,2.813,5.373,5.695
						C801.087,692.273,801.078,692.673,801.027,693.077z M802.039,793.813c-3.305,0.82-6.645-1.194-7.465-4.499
						c-2.269-9.147-4.074-18.576-5.366-27.998c-0.205-1.431-0.385-2.858-0.56-4.288c-0.503-3.351,2.003-6.451,5.391-6.852
						c3.381-0.406,6.445,2.007,6.854,5.388c0.157,1.341,0.332,2.684,0.526,4.049c1.234,9.019,2.956,18.013,5.118,26.736
						c0.09,0.359,0.145,0.721,0.169,1.075C806.904,790.352,804.983,793.084,802.039,793.813z"/>
				</g>
				<g style="opacity:0.3;">
					<path style="fill:#BDD0FB;" d="M1318.825,710.949c0.583,10.727,0.511,21.583-0.199,32.268c-0.23,3.394-3.165,5.966-6.564,5.739
						c-3.4-0.227-5.934-3.187-5.739-6.564c0.683-10.188,0.747-20.542,0.191-30.777c-0.187-3.399,2.423-6.305,5.82-6.488
						c3.372-0.182,6.26,2.381,6.486,5.739C1318.821,710.892,1318.823,710.922,1318.825,710.949z M1310.136,686.011
						c-3.351,0.59-6.549-1.65-7.136-5.002c-1.777-10.085-4.181-20.165-7.15-29.959c-0.973-3.241,0.852-6.7,4.116-7.686
						c3.258-0.988,6.694,0.852,7.685,4.11c3.11,10.264,5.631,20.828,7.489,31.397c0.039,0.224,0.066,0.442,0.081,0.664
						C1315.429,682.635,1313.272,685.458,1310.136,686.011z M1314.5,775.245c-2.029,10.556-4.718,21.078-7.995,31.272
						c-1.043,3.241-4.518,5.025-7.756,3.982c-3.244-1.04-5.015-4.501-3.985-7.753c3.129-9.725,5.693-19.759,7.634-29.829
						c0.644-3.344,3.875-5.531,7.213-4.89c2.812,0.541,4.805,2.91,4.989,5.637C1314.634,774.18,1314.604,774.71,1314.5,775.245z
						 M1293.261,625.329c-3.111,1.379-6.753-0.028-8.133-3.139c-4.148-9.362-8.912-18.559-14.166-27.34
						c-1.741-2.921-0.789-6.707,2.122-8.454c2.923-1.747,6.71-0.798,8.457,2.124c5.513,9.207,10.512,18.856,14.859,28.675
						c0.299,0.68,0.467,1.383,0.514,2.083C1297.083,621.789,1295.693,624.251,1293.261,625.329z M1294.772,836.568
						c-4.497,9.736-9.64,19.298-15.282,28.426c-1.79,2.896-5.591,3.791-8.487,2.001c-2.896-1.79-3.797-5.588-2.001-8.487
						c5.387-8.704,10.288-17.824,14.574-27.111c1.427-3.089,5.089-4.439,8.184-3.009c2.118,0.976,3.418,3.01,3.565,5.187
						C1295.391,834.568,1295.22,835.596,1294.772,836.568z M1260.904,891.376c-6.712,8.392-13.995,16.451-21.641,23.952
						c-2.428,2.383-6.328,2.347-8.712-0.083c-2.384-2.425-2.351-6.331,0.083-8.718c7.289-7.154,14.235-14.844,20.641-22.852
						c2.126-2.659,6.006-3.089,8.665-0.963c1.403,1.124,2.188,2.737,2.3,4.403C1262.34,888.598,1261.905,890.123,1260.904,891.376z
						 M1214.884,936.501c-8.531,6.547-17.539,12.625-26.766,18.067c-2.936,1.73-6.713,0.753-8.442-2.18
						c-1.73-2.931-0.748-6.71,2.177-8.439c8.803-5.187,17.391-10.984,25.52-17.23c2.702-2.073,6.573-1.564,8.644,1.138
						c0.773,1.001,1.183,2.162,1.262,3.333C1217.411,933.179,1216.582,935.195,1214.884,936.501z"/>
					<path style="fill:#BDD0FB;" d="M1264.417,565.007c-0.08-1.186-0.503-2.361-1.289-3.37c-3.242-4.162-6.624-8.245-10.048-12.141
						c-2.248-2.555-6.144-2.808-8.702-0.561c-2.545,2.25-2.802,6.141-0.56,8.702c3.267,3.714,6.491,7.611,9.588,11.581
						c2.093,2.686,5.969,3.164,8.651,1.071C1263.731,568.98,1264.549,566.98,1264.417,565.007z"/>
				</g>
				<g>
					<path style="fill:#BDD0FB;" d="M1148.149,549.092c-1.087-0.77-2.542-0.767-3.624,0.008l-30.886,22.119
						c-16.428-6.698-34.042-10.825-52.264-11.956l-18.209-33.314c-0.639-1.169-1.948-1.803-3.261-1.58l-44.925,7.627
						c-1.313,0.222-2.341,1.254-2.557,2.567l-6.195,37.457c-16.829,7.08-32.095,16.789-45.392,28.534l-36.455-10.687
						c-1.278-0.375-2.653,0.103-3.424,1.189l-26.374,37.159c-0.771,1.086-0.768,2.542,0.008,3.624l22.119,30.885
						c-6.699,16.428-10.826,34.043-11.956,52.266l-33.314,18.208c-1.169,0.639-1.803,1.948-1.58,3.261l7.626,44.926
						c0.223,1.313,1.255,2.339,2.568,2.557l37.457,6.195c7.08,16.829,16.789,32.095,28.534,45.391l-10.689,36.455
						c-0.374,1.277,0.103,2.653,1.189,3.423l37.16,26.375c1.085,0.77,2.541,0.767,3.623-0.008l30.887-22.12
						c16.427,6.699,34.042,10.826,52.265,11.956l18.209,33.314c0.638,1.169,1.948,1.803,3.261,1.58l44.926-7.626
						c1.313-0.223,2.339-1.254,2.557-2.568l6.195-37.457c16.829-7.08,32.095-16.789,45.392-28.534l36.455,10.688
						c1.278,0.375,2.652-0.102,3.424-1.189l26.374-37.159c0.771-1.086,0.767-2.541-0.007-3.624l-22.12-30.886
						c6.699-16.428,10.826-34.042,11.956-52.265l33.314-18.208c1.168-0.639,1.803-1.948,1.58-3.261l-7.627-44.925
						c-0.223-1.313-1.254-2.34-2.568-2.557l-37.456-6.195c-7.08-16.829-16.79-32.094-28.534-45.391l10.688-36.455
						c0.375-1.277-0.103-2.653-1.189-3.423L1148.149,549.092z"/>
					<path style="opacity:0.7;fill:#FFFFFF;" d="M1097.407,729.119c-0.98,12.419-6.742,23.709-16.22,31.792
						c-9.471,8.083-21.528,11.992-33.945,11.006c-25.627-2.031-44.787-24.5-42.798-50.168c2.039-25.63,24.543-44.826,50.164-42.791
						c12.416,0.983,23.706,6.742,31.789,16.217c6.57,7.702,10.382,17.111,11.05,27.033
						C1097.602,724.487,1097.589,726.799,1097.407,729.119z M1048.213,759.628c9.135,0.725,18.003-2.15,24.976-8.098
						c6.967-5.944,11.204-14.251,11.929-23.383l0,0c0.712-9.134-2.153-18-8.101-24.973c-5.941-6.969-14.251-11.204-23.379-11.929
						c-18.852-1.495-35.405,12.624-36.905,31.476c-0.133,1.702-0.141,3.382-0.029,5.037
						C1017.827,744.442,1031.066,758.269,1048.213,759.628z"/>
					<path style="opacity:0.7;fill:#FFFFFF;" d="M1166.17,718.469c-0.262-3.892-0.724-7.801-1.387-11.726
						c-1.321-7.794-3.436-15.461-6.295-22.807c-0.131-0.329-0.262-0.658-0.393-0.987c-1.016-2.544-3.536-4.037-6.131-3.865
						c-0.63,0.042-1.266,0.185-1.883,0.431c-3.161,1.263-4.681,4.852-3.431,8.011c2.735,6.833,4.743,13.992,5.975,21.276l0,0.003
						c0.069,0.399,0.132,0.802,0.195,1.2c2.761,17.265,1.114,34.565-4.563,50.625c-3.082,8.717-7.358,17.072-12.777,24.854
						c-0.044,0.064-0.088,0.126-0.132,0.19c-0.138,0.193-0.27,0.386-0.408,0.577c-16.048,22.606-39.937,37.615-67.269,42.253
						c-3.537,0.603-7.075,1.019-10.607,1.257c-23.76,1.596-47.153-4.975-66.839-18.944c-22.607-16.048-37.609-39.938-42.248-67.267
						c-4.626-27.315,1.643-54.836,17.684-77.445c16.047-22.606,39.937-37.614,67.269-42.253c3.477-0.593,6.974-1.003,10.469-1.238
						c15.16-1.017,30.368,1.292,44.532,6.819c0.874,0.34,1.775,0.469,2.652,0.407c2.306-0.155,4.435-1.611,5.33-3.909
						c1.228-3.175-0.327-6.745-3.506-7.985c-15.849-6.182-32.868-8.768-49.824-7.633c-3.916,0.264-7.825,0.723-11.714,1.383
						c-30.583,5.193-57.309,21.981-75.263,47.277c-17.948,25.293-25.001,56.049-19.786,86.639
						c5.189,30.58,21.975,57.306,47.274,75.257c22.018,15.631,48.19,22.98,74.773,21.194c3.946-0.266,7.909-0.731,11.863-1.402
						C1128.938,830.606,1170.119,777.143,1166.17,718.469z"/>
				</g>
			</g>
		</g>
		<g>
			
				<linearGradient id="SVGID_00000142166937625262890840000005451596304113174407_" gradientUnits="userSpaceOnUse" x1="1063.7917" y1="1881.4644" x2="2777.9641" y2="1881.4644">
				<stop  offset="0" style="stop-color:#09005D"/>
				<stop  offset="1" style="stop-color:#1A0F91"/>
			</linearGradient>
			<path style="fill:url(#SVGID_00000142166937625262890840000005451596304113174407_);" d="M1095.204,732.084
				c-10.11,407.83-42.901,1814.593-27.247,2313.108c1.658,52.813,43.996,95.202,96.807,96.931
				c261.204,8.547,1012.614,30.212,1439.855,12.288c88.988-3.733,159.753-75.814,161.6-164.861
				c8.879-428.071,28.466-1632.072-18.092-2183.625c-5.578-66.084-57.447-118.71-123.437-125.312
				c-284.463-28.457-1039.99-98.017-1409.101-74.065C1149.019,610.868,1096.857,665.395,1095.204,732.084z"/>
			
				<linearGradient id="SVGID_00000085968111435320895330000003913155336900065443_" gradientUnits="userSpaceOnUse" x1="2530.115" y1="447.3893" x2="1455.6233" y2="2794.0339">
				<stop  offset="0" style="stop-color:#FF928E"/>
				<stop  offset="1" style="stop-color:#FE7062"/>
			</linearGradient>
			<path style="fill:url(#SVGID_00000085968111435320895330000003913155336900065443_);" d="M1201.338,858.806
				c-14.267,334.01-59.265,1445.186-44.983,1856.075c2.087,60.057,49.422,108.618,109.413,112.128
				c247,14.454,880.534,46.326,1242.823,17.315c65.235-5.224,116.427-57.982,119.948-123.332
				c18.36-340.761,71.073-1375.42,57.384-1781.705c-2.185-64.814-52.391-117.746-116.982-123.545
				c-267.215-23.991-953.513-81.077-1261.375-64.28C1249.774,754.615,1203.808,800.98,1201.338,858.806z"/>
		</g>
		<g>
			<path style="fill:#91B3FA;" d="M2625.909,1297.872c43.19-13.602,114.052-44.702,147.68-108.407
				c7.375-13.971-0.613-31.121-15.936-34.964c-75.873-19.026-279.713-90.351-260.956-304.661
				c23.003-262.809,317.88-280.326,506.006-228.068c188.127,52.258,283.529,181.276,240.058,378.979
				c-40.986,186.404-399.164,326.136-615.166,310.81C2619.838,1311.011,2618.491,1300.208,2625.909,1297.872z"/>
			<path style="fill:#FFFFFF;" d="M2885.531,1164.469c-7.108,0-11.24-0.223-11.592-0.243c-3.726-0.211-6.577-3.401-6.366-7.126
				c0.208-3.724,3.435-6.58,7.121-6.37c0.182,0.01,18.196,0.969,44.991-1.28c3.712-0.307,6.986,2.452,7.299,6.169
				c0.313,3.719-2.448,6.988-6.171,7.301C2905.912,1164.17,2893.738,1164.469,2885.531,1164.469z"/>
			<path style="fill:#FFFFFF;" d="M3007.455,1146.506c-2.891,0-5.563-1.869-6.458-4.777c-1.095-3.569,0.911-7.349,4.478-8.444
				c82.012-25.171,135.097-73.18,157.784-142.687c23.112-70.814,20.872-136.937-6.488-191.221
				c-20.707-41.09-48.742-61.381-49.023-61.581c-3.036-2.165-3.752-6.38-1.591-9.419c2.155-3.041,6.362-3.759,9.411-1.605
				c1.241,0.879,30.659,22.035,52.934,65.852c20.446,40.221,38.361,107.942,7.606,202.169
				c-23.792,72.891-81.425,125.25-166.667,151.415C3008.782,1146.41,3008.112,1146.506,3007.455,1146.506z"/>
			<g style="opacity:0.82;">
				<path style="opacity:0.6;fill:#FFFFFF;" d="M3023.068,786.375h-437.934c-9.359,0-16.946-7.587-16.946-16.945l0,0
					c0-9.359,7.587-16.946,16.946-16.946h437.934c9.359,0,16.946,7.586,16.946,16.946l0,0
					C3040.014,778.788,3032.427,786.375,3023.068,786.375z"/>
				<path style="opacity:0.53;fill:#FFFFFF;" d="M3075.688,852.755h-437.934c-9.359,0-16.946-7.587-16.946-16.946l0,0
					c0-9.359,7.587-16.946,16.946-16.946h437.934c9.359,0,16.946,7.587,16.946,16.946l0,0
					C3092.634,845.168,3085.047,852.755,3075.688,852.755z"/>
				<path style="opacity:0.53;fill:#FFFFFF;" d="M2951.154,985.515h-313.4c-9.359,0-16.946-7.587-16.946-16.946l0,0
					c0-9.359,7.587-16.946,16.946-16.946h313.4c9.359,0,16.946,7.587,16.946,16.946l0,0
					C2968.1,977.928,2960.513,985.515,2951.154,985.515z"/>
				<path style="opacity:0.6;fill:#FFFFFF;" d="M3124.8,919.135h-437.934c-9.359,0-16.946-7.587-16.946-16.946l0,0
					c0-9.359,7.587-16.946,16.946-16.946H3124.8c9.359,0,16.946,7.587,16.946,16.946l0,0
					C3141.746,911.548,3134.159,919.135,3124.8,919.135z"/>
			</g>
		</g>
		<g>
			
				<linearGradient id="SVGID_00000062194679474033482160000006003053332520302752_" gradientUnits="userSpaceOnUse" x1="1275.2277" y1="490.0531" x2="1917.0032" y2="1713.6797" gradientTransform="matrix(0.9994 0.036 -0.036 0.9994 115.9913 -36.9153)">
				<stop  offset="0" style="stop-color:#09005D"/>
				<stop  offset="1" style="stop-color:#1A0F91"/>
			</linearGradient>
			<path style="fill:url(#SVGID_00000062194679474033482160000006003053332520302752_);" d="M2319.382,1755.918l-764.774-27.564
				c-34.043-1.227-60.893-30.084-59.666-64.128l0,0c1.227-34.043,30.084-60.893,64.128-59.666l764.773,27.564
				c34.043,1.227,60.893,30.085,59.666,64.128v0C2382.282,1730.296,2353.425,1757.146,2319.382,1755.918z"/>
			
				<linearGradient id="SVGID_00000182519122170290992270000015229255464364132283_" gradientUnits="userSpaceOnUse" x1="1874.2078" y1="1729.8473" x2="2179.5505" y2="361.0731">
				<stop  offset="0" style="stop-color:#4F52FF"/>
				<stop  offset="1" style="stop-color:#4042E2"/>
			</linearGradient>
			<path style="fill:url(#SVGID_00000182519122170290992270000015229255464364132283_);" d="M2481.814,1679.136l-1075.437-38.761
				c-14.428-0.52-25.807-12.75-25.287-27.178l18.947-525.679c0.948-26.291,23.234-47.027,49.525-46.079l1032.298,37.206
				c26.291,0.948,47.027,23.234,46.079,49.525l-18.947,525.679C2508.472,1668.277,2496.242,1679.656,2481.814,1679.136z"/>
			
				<linearGradient id="SVGID_00000158023108409714891930000008229757935033417651_" gradientUnits="userSpaceOnUse" x1="1369.3738" y1="1356.2487" x2="2484.1904" y2="2754.5867" gradientTransform="matrix(0.9994 0.036 -0.036 0.9994 115.9913 -36.9153)">
				<stop  offset="0" style="stop-color:#4F52FF"/>
				<stop  offset="1" style="stop-color:#4042E2"/>
			</linearGradient>
			<path style="fill:url(#SVGID_00000158023108409714891930000008229757935033417651_);" d="M1517.725,1677.443l850.362,30.649
				c76.324,2.751,136.52,67.449,133.769,143.773l-4.021,111.569c-11.18,310.173-284.218,835.404-594.391,824.225h-0.001
				c-310.173-11.18-544.691-554.705-533.512-864.878l4.021-111.569C1376.704,1734.888,1441.401,1674.693,1517.725,1677.443z"/>
			<g>
				
					<linearGradient id="SVGID_00000131350638686063755690000013087066323071646125_" gradientUnits="userSpaceOnUse" x1="1447.74" y1="1349.2716" x2="2295.8899" y2="1349.2716" gradientTransform="matrix(0.9994 0.036 -0.036 0.9994 115.9913 -36.9153)">
					<stop  offset="0" style="stop-color:#09005D"/>
					<stop  offset="1" style="stop-color:#1A0F91"/>
				</linearGradient>
				<path style="fill:url(#SVGID_00000131350638686063755690000013087066323071646125_);" d="M2361.078,1417.831
					c-1.509,41.854-34.552,75.837-76.364,78.258c-226.311,13.105-460.305,5.311-700.382-25.46
					c-41.658-5.339-72.398-41.634-70.885-83.605l1.586-44.001c1.504-41.724,34.38-75.606,76.048-78.235
					c234.904-14.821,469.22-10.454,702.608,24.195c40.843,6.063,70.517,42.077,69.029,83.341L2361.078,1417.831z"/>
				<g>
					<path style="fill:#91B3FA;" d="M1760.799,1374.158c-1.025,28.436-24.908,50.657-53.344,49.632
						c-28.436-1.025-50.658-24.908-49.632-53.344c1.025-28.436,24.908-50.658,53.344-49.633
						C1739.602,1321.839,1761.823,1345.722,1760.799,1374.158z"/>
					<path style="fill:#91B3FA;" d="M2218.281,1390.646c-1.025,28.436-24.908,50.658-53.344,49.632
						c-28.436-1.025-50.657-24.908-49.633-53.344c1.025-28.436,24.908-50.658,53.344-49.632
						C2197.084,1338.327,2219.306,1362.21,2218.281,1390.646z"/>
				</g>
				<path style="fill:#91B3FA;" d="M1708.28,1443.962c-0.048-1.71,1.269-3.094,2.925-3.144l0,0c1.71-0.048,3.094,1.269,3.142,2.978
					l0,0c0.051,1.654-1.266,3.04-2.976,3.089l0,0c-0.053-0.002-0.11-0.004-0.163-0.006l0,0
					C1709.61,1446.821,1708.278,1445.56,1708.28,1443.962z M1692.757,1445.11c-1.637-0.39-2.625-2.023-2.292-3.663l0,0
					c0.39-1.64,2.025-2.682,3.663-2.291l0,0c1.64,0.39,2.63,1.967,2.294,3.663l0,0c-0.328,1.419-1.631,2.418-3.06,2.367l0,0
					C1693.142,1445.178,1692.978,1445.119,1692.757,1445.11z M1726.092,1441.96c-0.439-1.614,0.45-3.29,2.117-3.724l0,0
					c1.616-0.493,3.29,0.449,3.727,2.063l0,0c0.493,1.616-0.45,3.29-2.065,3.78l0,0l0,0l0,0c-0.334,0.099-0.662,0.086-0.939,0.076
					l0,0C1727.613,1444.107,1726.485,1443.297,1726.092,1441.96z M1675.194,1438.694c-1.513-0.773-2.052-2.608-1.285-4.068l0,0
					c0.717-1.519,2.554-2.114,4.07-1.341l0,0c1.514,0.77,2.055,2.608,1.284,4.068l0,0c-0.536,1.137-1.659,1.702-2.814,1.66l0,0
					C1676.066,1439,1675.627,1438.931,1675.194,1438.694z M1742.902,1435.625c-0.883-1.466-0.376-3.32,1.088-4.203l0,0
					c1.407-0.832,3.264-0.324,4.149,1.086l0,0c0.83,1.461,0.376,3.319-1.088,4.203l0,0l0,0l0,0
					c-0.509,0.312-1.117,0.401-1.668,0.381l0,0C1744.394,1437.056,1743.421,1436.524,1742.902,1435.625z M1659.766,1428.11
					c-1.23-1.091-1.379-3.025-0.232-4.304l0,0c1.091-1.228,3.023-1.325,4.307-0.232l0,0c1.228,1.094,1.323,3.023,0.23,4.307l0,0
					c-0.63,0.693-1.525,1.045-2.406,1.014l0,0C1661.006,1428.87,1660.297,1428.626,1659.766,1428.11z M1757.544,1425.299
					c-1.17-1.199-1.154-3.127,0.047-4.351l0,0c1.198-1.167,3.124-1.154,4.294,0.045l0,0c1.17,1.199,1.154,3.127-0.044,4.297l0,0l0,0
					l0,0c-0.628,0.636-1.409,0.885-2.234,0.855l0,0C1758.836,1426.118,1758.131,1425.815,1757.544,1425.299z M1647.436,1414.059
					c-0.942-1.411-0.544-3.271,0.811-4.213l0,0c1.411-0.942,3.328-0.599,4.27,0.813l0,0c0.941,1.411,0.543,3.272-0.868,4.211l0,0
					c-0.511,0.369-1.177,0.565-1.784,0.544l0,0C1648.93,1415.38,1648.011,1414.906,1647.436,1414.059z M1769.22,1411.616
					c-1.456-0.879-1.884-2.713-1.063-4.17l0,0c0.881-1.456,2.769-1.883,4.17-1.06l0,0c1.456,0.879,1.939,2.768,1.063,4.17l0,0l0,0
					l0,0c-0.588,1.025-1.653,1.538-2.755,1.499l0,0C1770.197,1412.039,1769.65,1411.909,1769.22,1411.616z M1639.001,1397.392
					L1639.001,1397.392L1639.001,1397.392c-0.549-1.561,0.285-3.35,1.849-3.899l0,0c1.561-0.552,3.296,0.283,3.899,1.846l0,0
					c0.552,1.564-0.285,3.352-1.846,3.901l0,0c-0.391,0.096-0.779,0.192-1.165,0.178l0,0
					C1640.581,1399.378,1639.452,1398.622,1639.001,1397.392z M1777.129,1395.484c-1.638-0.444-2.568-2.132-2.068-3.765l0,0
					c0.495-1.58,2.184-2.512,3.765-2.067l0,0c1.634,0.5,2.566,2.185,2.067,3.765l0,0c0,0,0,0-0.002,0.054l0,0
					c-0.378,1.31-1.677,2.199-3.053,2.149l0,0C1777.619,1395.612,1777.347,1395.548,1777.129,1395.484z M1634.977,1379.122
					c-0.161-1.657,1.106-3.156,2.764-3.317l0,0c1.66-0.158,3.156,1.107,3.317,2.764l0,0c0.161,1.66-1.106,3.156-2.764,3.317l0,0
					c-0.11-0.004-0.274-0.01-0.384-0.014l0,0C1636.423,1381.818,1635.141,1380.672,1634.977,1379.122z M1777.818,1374.796
					c0.002-0.056,0.002-0.056,0.004-0.11l0,0c0.002-0.056,0.004-0.11,0.008-0.22l0,0c0.06-1.652,1.431-2.98,3.137-2.918l0,0
					c1.65,0.059,2.976,1.484,2.916,3.136l0,0c-0.002,0.054-0.004,0.11-0.006,0.164l0,0c-0.002,0.056-0.004,0.11-0.006,0.166l0,0
					c-0.06,1.65-1.428,2.978-3.134,2.916l0,0C1779.085,1377.871,1777.758,1376.445,1777.818,1374.796z M1777.83,1374.466
					L1777.83,1374.466L1777.83,1374.466l-0.002,0.054l0,0C1777.83,1374.466,1777.828,1374.52,1777.83,1374.466z M1638.169,1363.923
					c-1.698-0.282-2.8-1.809-2.574-3.455l0,0c0.282-1.696,1.863-2.795,3.505-2.518l0,0c1.646,0.226,2.799,1.809,2.519,3.454l0,0
					c-0.219,1.533-1.58,2.641-3.122,2.585l0,0C1638.387,1363.985,1638.279,1363.927,1638.169,1363.923z M1776.243,1357.384
					c-0.383-1.609,0.67-3.279,2.279-3.609l0,0c1.665-0.381,3.282,0.67,3.665,2.281l0,0c0.324,1.663-0.67,3.282-2.338,3.663l0,0
					c-0.276,0.044-0.496,0.036-0.77,0.026l0,0C1777.757,1359.698,1776.524,1358.771,1776.243,1357.384z M1642.433,1346.503
					c-1.52-0.663-2.225-2.451-1.563-4.025l0,0c0.66-1.517,2.45-2.225,4.024-1.563l0,0c1.518,0.66,2.225,2.45,1.56,4.024l0,0
					c-0.536,1.137-1.719,1.867-2.931,1.823l0,0C1643.197,1346.751,1642.814,1346.627,1642.433,1346.503z M1770.432,1341.255
					L1770.432,1341.255c-0.771-1.515-0.153-3.368,1.307-4.084l0,0c1.515-0.771,3.31-0.211,4.085,1.304l0,0l0,0l0,0
					c0.771,1.516,0.208,3.314-1.307,4.084l0,0c-0.504,0.257-1.003,0.349-1.497,0.331l0,0
					C1771.973,1342.852,1770.948,1342.263,1770.432,1341.255z M1650.989,1330.722c-1.338-1.095-1.598-2.976-0.56-4.316l0,0
					c1.038-1.283,2.977-1.544,4.26-0.508l0,0c1.339,1.041,1.603,2.922,0.562,4.262l0,0c-0.634,0.803-1.585,1.21-2.52,1.176l0,0
					C1652.127,1331.315,1651.472,1331.127,1650.989,1330.722z M1760.756,1327.023L1760.756,1327.023
					c-1.111-1.253-0.988-3.178,0.265-4.289l0,0c1.307-1.11,3.228-0.984,4.343,0.266l0,0c1.112,1.254,0.986,3.178-0.265,4.289l0,0
					c-0.627,0.529-1.405,0.775-2.122,0.749l0,0C1762.151,1328.009,1761.337,1327.705,1760.756,1327.023z M1663.145,1317.498
					c-0.999-1.303-0.764-3.221,0.542-4.277l0,0c1.356-0.998,3.221-0.766,4.276,0.539l0,0c0.998,1.359,0.764,3.28-0.538,4.279l0,0
					c-0.625,0.472-1.291,0.669-2.008,0.643l0,0C1664.592,1318.653,1663.727,1318.237,1663.145,1317.498z M1747.888,1315.651
					L1747.888,1315.651c-1.397-0.933-1.715-2.873-0.784-4.217l0,0c0.933-1.397,2.872-1.768,4.216-0.838l0,0l0,0l0,0
					c1.398,0.987,1.772,2.872,0.839,4.272l0,0c-0.636,0.857-1.646,1.318-2.637,1.282l0,0
					C1748.973,1316.131,1748.427,1316.001,1747.888,1315.651z M1678.206,1307.741c-0.659-1.568,0.067-3.36,1.578-4.021l0,0
					c1.565-0.659,3.357,0.067,4.016,1.632l0,0c0.664,1.512-0.062,3.304-1.63,3.963l0,0c-0.392,0.207-0.837,0.301-1.277,0.285l0,0
					C1679.738,1309.558,1678.663,1308.857,1678.206,1307.741z M1732.635,1307.828L1732.635,1307.828
					c-1.576-0.606-2.396-2.343-1.844-3.922l0,0c0.554-1.578,2.292-2.397,3.922-1.787l0,0c0,0,0,0-0.056-0.002l0,0
					c1.634,0.554,2.454,2.291,1.845,3.868l0,0c-0.434,1.308-1.673,2.089-2.938,2.043l0,0
					C1733.234,1308.016,1732.905,1307.948,1732.635,1307.828z M1695.217,1302.016c-0.271-1.661,0.888-3.217,2.547-3.432l0,0
					c1.662-0.271,3.22,0.832,3.49,2.493l0,0c0.218,1.662-0.888,3.22-2.55,3.491l0,0c-0.222,0.046-0.386,0.04-0.606,0.032l0,0
					C1696.723,1304.551,1695.437,1303.512,1695.217,1302.016z M1715.855,1304.083L1715.855,1304.083
					c-1.646-0.169-2.916-1.646-2.745-3.348l0,0c0.17-1.648,1.647-2.862,3.351-2.744l0,0l0,0l0,0c1.646,0.17,2.86,1.645,2.745,3.349
					l0,0c-0.168,1.592-1.589,2.808-3.131,2.752l0,0C1715.965,1304.088,1715.911,1304.085,1715.855,1304.083z"/>
				<path style="fill:#91B3FA;" d="M2165.512,1460.442c-0.048-1.71,1.269-3.094,2.925-3.144l0,0
					c1.709-0.048,3.094,1.268,3.142,2.978l0,0c0.051,1.654-1.266,3.04-2.976,3.089l0,0c-0.053-0.002-0.11-0.004-0.164-0.006l0,0
					C2166.843,1463.301,2165.511,1462.039,2165.512,1460.442z M2149.99,1461.59c-1.637-0.39-2.625-2.023-2.292-3.663l0,0
					c0.39-1.64,2.025-2.682,3.663-2.291l0,0c1.64,0.39,2.63,1.967,2.294,3.663l0,0c-0.328,1.419-1.631,2.419-3.061,2.367l0,0
					C2150.374,1461.658,2150.21,1461.598,2149.99,1461.59z M2183.324,1458.439c-0.439-1.614,0.45-3.29,2.117-3.725l0,0
					c1.616-0.493,3.29,0.449,3.727,2.063l0,0c0.493,1.615-0.45,3.29-2.065,3.78l0,0l0,0l0,0c-0.334,0.099-0.662,0.086-0.938,0.077
					l0,0C2184.845,1460.587,2183.718,1459.777,2183.324,1458.439z M2132.426,1455.174c-1.513-0.773-2.052-2.608-1.284-4.068l0,0
					c0.717-1.518,2.554-2.114,4.07-1.341l0,0c1.513,0.77,2.055,2.609,1.284,4.068l0,0c-0.536,1.137-1.659,1.702-2.814,1.661l0,0
					C2133.298,1455.48,2132.859,1455.41,2132.426,1455.174z M2200.134,1452.105c-0.883-1.466-0.375-3.32,1.088-4.203l0,0
					c1.407-0.832,3.264-0.324,4.149,1.086l0,0c0.83,1.461,0.375,3.319-1.088,4.203l0,0l0,0l0,0
					c-0.509,0.312-1.117,0.401-1.668,0.381l0,0C2201.626,1453.536,2200.653,1453.003,2200.134,1452.105z M2116.999,1444.59
					c-1.23-1.091-1.378-3.025-0.232-4.304l0,0c1.091-1.228,3.023-1.325,4.307-0.232l0,0c1.228,1.093,1.323,3.022,0.23,4.307l0,0
					c-0.63,0.693-1.525,1.045-2.406,1.014l0,0C2118.239,1445.35,2117.529,1445.106,2116.999,1444.59z M2214.777,1441.778
					c-1.17-1.198-1.154-3.127,0.047-4.35l0,0c1.198-1.167,3.124-1.154,4.294,0.045l0,0c1.17,1.198,1.154,3.127-0.045,4.296l0,0l0,0
					l0,0c-0.628,0.637-1.409,0.886-2.234,0.856l0,0C2216.068,1442.597,2215.363,1442.295,2214.777,1441.778z M2104.668,1430.539
					c-0.941-1.411-0.544-3.272,0.811-4.213l0,0c1.411-0.941,3.327-0.598,4.27,0.813l0,0c0.941,1.411,0.543,3.271-0.868,4.211l0,0
					c-0.511,0.369-1.177,0.565-1.784,0.543l0,0C2106.162,1431.86,2105.243,1431.386,2104.668,1430.539z M2226.452,1428.096
					c-1.456-0.878-1.885-2.712-1.063-4.17l0,0c0.882-1.456,2.769-1.883,4.17-1.06l0,0c1.456,0.879,1.939,2.768,1.063,4.17l0,0l0,0
					l0,0c-0.588,1.025-1.653,1.538-2.754,1.499l0,0C2227.429,1428.518,2226.883,1428.389,2226.452,1428.096z M2096.233,1413.872
					L2096.233,1413.872L2096.233,1413.872c-0.549-1.561,0.285-3.349,1.849-3.898l0,0c1.561-0.552,3.295,0.282,3.898,1.846l0,0
					c0.552,1.563-0.285,3.352-1.846,3.901l0,0c-0.391,0.096-0.779,0.192-1.166,0.178l0,0
					C2097.813,1415.857,2096.684,1415.101,2096.233,1413.872z M2234.361,1411.964c-1.638-0.444-2.567-2.132-2.067-3.765l0,0
					c0.495-1.58,2.183-2.512,3.765-2.067l0,0c1.634,0.5,2.566,2.185,2.067,3.765l0,0c0,0,0,0-0.002,0.053l0,0
					c-0.378,1.31-1.677,2.199-3.053,2.15l0,0C2234.851,1412.092,2234.579,1412.028,2234.361,1411.964z M2092.209,1395.601
					c-0.161-1.657,1.106-3.156,2.764-3.317l0,0c1.66-0.158,3.156,1.107,3.317,2.764l0,0c0.161,1.661-1.106,3.156-2.764,3.317l0,0
					c-0.11-0.004-0.274-0.01-0.384-0.014l0,0C2093.656,1398.298,2092.374,1397.152,2092.209,1395.601z M2235.05,1391.276
					c0.002-0.056,0.002-0.056,0.004-0.11l0,0c0.002-0.056,0.004-0.11,0.008-0.22l0,0c0.059-1.652,1.431-2.98,3.136-2.918l0,0
					c1.65,0.059,2.976,1.484,2.916,3.136l0,0c-0.002,0.054-0.004,0.11-0.006,0.164l0,0c-0.002,0.056-0.004,0.11-0.006,0.166l0,0
					c-0.059,1.649-1.428,2.977-3.134,2.916l0,0C2236.317,1394.35,2234.99,1392.925,2235.05,1391.276z M2235.062,1390.945
					L2235.062,1390.945L2235.062,1390.945l-0.002,0.053l0,0C2235.062,1390.945,2235.06,1390.999,2235.062,1390.945z
					 M2095.401,1380.402c-1.698-0.281-2.8-1.809-2.574-3.455l0,0c0.282-1.695,1.863-2.795,3.504-2.518l0,0
					c1.647,0.226,2.8,1.809,2.52,3.453l0,0c-0.219,1.534-1.58,2.642-3.122,2.586l0,0
					C2095.619,1380.464,2095.511,1380.407,2095.401,1380.402z M2233.475,1373.863c-0.383-1.609,0.67-3.28,2.279-3.609l0,0
					c1.666-0.381,3.282,0.67,3.665,2.281l0,0c0.324,1.663-0.67,3.282-2.338,3.663l0,0c-0.276,0.044-0.496,0.036-0.77,0.026l0,0
					C2234.989,1376.177,2233.756,1375.251,2233.475,1373.863z M2099.666,1362.982c-1.52-0.662-2.225-2.45-1.563-4.024l0,0
					c0.66-1.517,2.45-2.225,4.024-1.563l0,0c1.518,0.66,2.225,2.45,1.56,4.024l0,0c-0.536,1.138-1.719,1.867-2.93,1.823l0,0
					C2100.429,1363.23,2100.046,1363.107,2099.666,1362.982z M2227.665,1357.734L2227.665,1357.734
					c-0.771-1.516-0.153-3.368,1.307-4.085l0,0c1.515-0.771,3.311-0.212,4.084,1.304l0,0l0,0l0,0
					c0.771,1.515,0.209,3.314-1.306,4.085l0,0c-0.504,0.257-1.003,0.349-1.497,0.331l0,0
					C2229.205,1359.331,2228.18,1358.743,2227.665,1357.734z M2108.221,1347.202c-1.338-1.095-1.598-2.976-0.561-4.316l0,0
					c1.039-1.283,2.978-1.544,4.261-0.508l0,0c1.34,1.041,1.603,2.922,0.562,4.262l0,0c-0.634,0.803-1.585,1.209-2.52,1.176l0,0
					C2109.359,1347.795,2108.704,1347.607,2108.221,1347.202z M2217.988,1343.502L2217.988,1343.502
					c-1.112-1.253-0.988-3.178,0.265-4.289l0,0c1.307-1.109,3.229-0.984,4.343,0.267l0,0c1.112,1.253,0.985,3.177-0.265,4.289l0,0
					c-0.627,0.528-1.405,0.775-2.122,0.749l0,0C2219.384,1344.489,2218.569,1344.185,2217.988,1343.502z M2120.377,1333.977
					c-0.999-1.303-0.764-3.22,0.542-4.276l0,0c1.356-0.998,3.221-0.766,4.276,0.539l0,0c0.998,1.359,0.764,3.28-0.538,4.279l0,0
					c-0.625,0.472-1.291,0.669-2.009,0.643l0,0C2121.824,1335.132,2120.959,1334.717,2120.377,1333.977z M2205.12,1332.131
					L2205.12,1332.131c-1.397-0.933-1.715-2.873-0.784-4.217l0,0c0.933-1.397,2.872-1.769,4.216-0.838l0,0l0,0l0,0
					c1.398,0.987,1.772,2.872,0.839,4.272l0,0c-0.636,0.857-1.646,1.318-2.637,1.282l0,0
					C2206.205,1332.611,2205.659,1332.481,2205.12,1332.131z M2135.438,1324.22c-0.659-1.568,0.067-3.36,1.579-4.021l0,0
					c1.565-0.659,3.357,0.067,4.016,1.632l0,0c0.664,1.511-0.062,3.304-1.63,3.963l0,0c-0.392,0.206-0.837,0.301-1.277,0.285l0,0
					C2136.97,1326.038,2135.895,1325.337,2135.438,1324.22z M2189.867,1324.307L2189.867,1324.307
					c-1.576-0.606-2.396-2.344-1.844-3.922l0,0c0.554-1.578,2.292-2.398,3.922-1.787l0,0c0,0,0,0-0.056-0.002l0,0
					c1.634,0.554,2.454,2.291,1.845,3.868l0,0c-0.435,1.308-1.673,2.089-2.938,2.043l0,0
					C2190.466,1324.496,2190.137,1324.427,2189.867,1324.307z M2152.449,1318.496c-0.271-1.661,0.888-3.217,2.547-3.432l0,0
					c1.662-0.271,3.22,0.832,3.491,2.493l0,0c0.217,1.663-0.888,3.22-2.55,3.492l0,0c-0.222,0.046-0.386,0.04-0.606,0.032l0,0
					C2153.955,1321.031,2152.67,1319.992,2152.449,1318.496z M2173.087,1320.563L2173.087,1320.563
					c-1.646-0.17-2.916-1.646-2.744-3.349l0,0c0.17-1.648,1.647-2.862,3.351-2.744l0,0l0,0l0,0c1.646,0.17,2.86,1.645,2.745,3.349
					l0,0c-0.168,1.592-1.589,2.808-3.131,2.752l0,0C2173.198,1320.567,2173.144,1320.565,2173.087,1320.563z"/>
			</g>
			
				<linearGradient id="SVGID_00000104683048277039232000000006055807123174244239_" gradientUnits="userSpaceOnUse" x1="1386.3253" y1="791.9402" x2="1350.0741" y2="1118.2007" gradientTransform="matrix(0.9994 0.036 -0.036 0.9994 115.9913 -36.9153)">
				<stop  offset="0" style="stop-color:#4F52FF"/>
				<stop  offset="1" style="stop-color:#4042E2"/>
			</linearGradient>
			<path style="fill:url(#SVGID_00000104683048277039232000000006055807123174244239_);" d="M1484.254,922.552
				c-0.569,15.78-13.822,28.111-29.602,27.543s-28.111-13.822-27.542-29.602c0.569-15.78,13.821-28.111,29.601-27.542
				C1472.491,893.519,1484.823,906.772,1484.254,922.552z"/>
			
				<linearGradient id="SVGID_00000044169822617860585440000007013790889621909154_" gradientUnits="userSpaceOnUse" x1="1373.2531" y1="1079.8365" x2="1478.8655" y2="1079.8365" gradientTransform="matrix(0.9994 0.036 -0.036 0.9994 115.9913 -36.9153)">
				<stop  offset="0" style="stop-color:#09005D"/>
				<stop  offset="1" style="stop-color:#1A0F91"/>
			</linearGradient>
			<path style="fill:url(#SVGID_00000044169822617860585440000007013790889621909154_);" d="M1447.172,1157.616
				c0,0,67.919,11.191,108.443-76.542l-16.79-38.039c-5.715-12.947-20.906-18.73-33.784-12.861l-39.875,18.173
				c-8.758,3.991-14.509,12.588-14.856,22.207L1447.172,1157.616z"/>
			
				<linearGradient id="SVGID_00000090274242987085071100000003722532515749708459_" gradientUnits="userSpaceOnUse" x1="1421.1631" y1="801.9269" x2="1386.6064" y2="1112.9365" gradientTransform="matrix(0.9994 0.036 -0.036 0.9994 115.9913 -36.9153)">
				<stop  offset="0" style="stop-color:#4F52FF"/>
				<stop  offset="1" style="stop-color:#4042E2"/>
			</linearGradient>
			<path style="fill:url(#SVGID_00000090274242987085071100000003722532515749708459_);" d="M1460.867,934.935
				c-0.683-1.766-3.328-1.065-3.046,0.807l18.993,126.252c0.432,2.872,2.277,5.336,4.911,6.559s5.707,1.043,8.18-0.48l7.441-4.582
				c6.186-3.81,8.774-11.49,6.154-18.266L1460.867,934.935z"/>
			
				<linearGradient id="SVGID_00000150062958744559812220000012980162064324061824_" gradientUnits="userSpaceOnUse" x1="2402.9885" y1="904.9238" x2="2366.7373" y2="1231.1836" gradientTransform="matrix(0.9994 0.036 -0.036 0.9994 115.9913 -36.9153)">
				<stop  offset="0" style="stop-color:#4F52FF"/>
				<stop  offset="1" style="stop-color:#4042E2"/>
			</linearGradient>
			<path style="fill:url(#SVGID_00000150062958744559812220000012980162064324061824_);" d="M2455.706,957.565
				c-0.569,15.78,11.762,29.033,27.542,29.602c15.78,0.569,29.033-11.762,29.602-27.542c0.569-15.779-11.762-29.033-27.542-29.602
				C2469.528,929.454,2456.275,941.785,2455.706,957.565z"/>
			
				<linearGradient id="SVGID_00000103266190560951045280000018343829786485070267_" gradientUnits="userSpaceOnUse" x1="2296.8589" y1="1079.8564" x2="2402.4697" y2="1079.8564" gradientTransform="matrix(0.9994 0.036 -0.036 0.9994 115.9913 -36.9153)">
				<stop  offset="0" style="stop-color:#09005D"/>
				<stop  offset="1" style="stop-color:#1A0F91"/>
			</linearGradient>
			<path style="fill:url(#SVGID_00000103266190560951045280000018343829786485070267_);" d="M2475.769,1194.689
				c0,0-68.549,6.272-102.651-84.151l19.485-36.732c6.633-12.503,22.2-17.177,34.623-10.396l38.463,20.996
				c8.448,4.611,13.565,13.6,13.219,23.219L2475.769,1194.689z"/>
			
				<linearGradient id="SVGID_00000119096540256505038560000006329722048046484365_" gradientUnits="userSpaceOnUse" x1="2382.9504" y1="903.342" x2="2348.0415" y2="1217.5225" gradientTransform="matrix(0.9994 0.036 -0.036 0.9994 115.9913 -36.9153)">
				<stop  offset="0" style="stop-color:#4F52FF"/>
				<stop  offset="1" style="stop-color:#4042E2"/>
			</linearGradient>
			<path style="fill:url(#SVGID_00000119096540256505038560000006329722048046484365_);" d="M2481.121,972.625l-27.911,124.015
				c-0.665,2.954-2.768,5.377-5.598,6.451s-6.012,0.656-8.469-1.113l-6.641-4.781c-5.896-4.245-7.924-12.092-4.823-18.662
				l50.463-106.935C2478.949,969.888,2481.536,970.778,2481.121,972.625z"/>
			<path style="fill:#7D97F4;" d="M1641.069,1194.438c-15.504-0.559-28.284-12.885-29.113-28.673
				c-0.878-16.702,11.951-30.951,28.65-31.829c220.656-11.595,421.702-4.984,614.614,20.213
				c16.584,2.163,28.271,17.363,26.104,33.944c-2.166,16.584-17.31,28.283-33.944,26.104
				c-189.217-24.708-386.653-31.182-603.595-19.784C1642.87,1194.463,1641.967,1194.47,1641.069,1194.438z"/>
			<g>
				<path style="fill:#7D97F4;" d="M1937.558,1516.342c-122.284-4.407-245.326-14.908-368.32-31.478
					c-45.094-6.075-77.779-47.301-76.028-95.895l1.767-49.034c1.738-48.218,36.996-86.958,82.014-90.112
					c265.514-18.6,504.923-10.383,731.919,25.126c43.925,6.871,75.756,47.968,74.04,95.597l-1.828,50.713
					c-1.747,48.473-37.153,87.226-82.359,90.141C2179.707,1519.082,2059.007,1520.72,1937.558,1516.342z M1962.646,1247.978
					c-122.891-4.429-250.714-1.9-385.258,7.529c-42.103,2.948-75.083,39.333-76.716,84.633l-1.767,49.034
					c-1.645,45.652,28.917,84.362,71.095,90.046c244.775,32.971,489.843,41.884,728.398,26.495
					c42.272-2.727,75.387-39.123,77.029-84.663l1.828-50.713c1.613-44.749-28.146-83.339-69.226-89.763
					C2196.459,1263.122,2081.874,1252.275,1962.646,1247.978z"/>
			</g>
			<g>
				<path style="fill:#7D97F4;" d="M2125.931,2040.929l-396.142-14.278c-37.923-1.367-67.662-33.331-66.296-71.254l4.065-112.79
					c1.367-37.923,33.331-67.663,71.253-66.296l396.142,14.278c37.923,1.366,67.663,33.331,66.295,71.253l-4.065,112.79
					C2195.818,2012.556,2163.854,2042.296,2125.931,2040.929z M1738.614,1781.814c-34.89-1.258-64.296,26.103-65.553,60.992
					l-4.065,112.79c-1.258,34.89,26.103,64.295,60.992,65.553l396.141,14.278c34.89,1.257,64.296-26.103,65.553-60.992l4.065-112.79
					c1.257-34.89-26.102-64.296-60.992-65.553L1738.614,1781.814z"/>
			</g>
			<g>
				<path style="fill:#7D97F4;" d="M1773.91,1846.441c-0.715-0.026-1.427-0.108-2.136-0.298c-0.711-0.136-1.364-0.38-2.015-0.678
					c-0.651-0.301-1.298-0.655-1.889-1.117c-0.59-0.406-1.125-0.867-1.6-1.435c-1.963-2.108-3.069-5.012-2.965-7.873
					c0.105-2.918,1.415-5.679,3.527-7.696c4.217-3.926,11.591-3.66,15.571,0.561c0.474,0.566,0.895,1.132,1.314,1.753
					c0.362,0.621,0.671,1.238,0.921,1.908c0.251,0.724,0.448,1.394,0.532,2.112c0.138,0.721,0.166,1.44,0.14,2.154
					c-0.026,0.715-0.105,1.428-0.295,2.136c-0.136,0.714-0.38,1.364-0.68,2.015c-0.3,0.705-0.652,1.3-1.058,1.891
					c-0.463,0.589-0.923,1.123-1.435,1.6c-0.517,0.533-1.138,0.951-1.756,1.314c-0.623,0.418-1.239,0.727-1.91,0.98
					c-0.668,0.25-1.393,0.445-2.111,0.529C1775.397,1846.438,1774.627,1846.467,1773.91,1846.441z"/>
				<path style="fill:#7D97F4;" d="M2023.163,1844.406c0.218-6.053,5.291-10.827,11.344-10.609l0,0
					c6.106,0.22,10.882,5.35,10.664,11.403l0,0c-0.218,6.053-5.351,10.826-11.457,10.605l0,0
					C2027.661,1855.587,2022.945,1850.459,2023.163,1844.406z M1971.168,1842.532c0.218-6.052,5.348-10.825,11.401-10.607l0,0
					c6.106,0.22,10.826,5.348,10.607,11.4l0,0c-0.218,6.053-5.294,10.828-11.4,10.608l0,0
					C1975.723,1853.715,1970.95,1848.585,1971.168,1842.532z M1919.23,1840.66c0.218-6.053,5.294-10.827,11.4-10.607l0,0
					c6.053,0.218,10.826,5.347,10.607,11.4l0,0c-0.218,6.053-5.347,10.825-11.4,10.608l0,0
					C1923.731,1851.841,1919.012,1846.713,1919.23,1840.66z M1867.235,1838.786c0.219-6.052,5.348-10.825,11.401-10.607l0,0
					c6.106,0.22,10.826,5.348,10.607,11.4l0,0c-0.218,6.053-5.294,10.828-11.4,10.608l0,0
					C1871.79,1849.969,1867.017,1844.839,1867.235,1838.786z M1815.297,1836.914c0.219-6.053,5.294-10.827,11.401-10.607l0,0
					c6.053,0.218,10.825,5.348,10.607,11.4l0,0c-0.218,6.053-5.348,10.826-11.4,10.608l0,0
					C1819.798,1848.095,1815.079,1842.967,1815.297,1836.914z"/>
				<path style="fill:#7D97F4;" d="M2085.708,1857.679c-2.918-0.105-5.68-1.361-7.642-3.528c-0.533-0.514-0.954-1.081-1.316-1.699
					c-0.362-0.618-0.727-1.239-0.977-1.907c-0.251-0.727-0.445-1.394-0.529-2.115c-0.141-0.721-0.169-1.438-0.143-2.152
					c0.105-2.917,1.361-5.681,3.525-7.642c0.514-0.533,1.081-0.953,1.699-1.316c0.623-0.418,1.239-0.727,1.964-0.976
					c0.671-0.25,1.34-0.446,2.058-0.531c3.602-0.588,7.356,0.706,9.85,3.384c1.963,2.11,3.017,4.956,2.912,7.874
					c-0.026,0.715-0.108,1.427-0.297,2.136c-0.136,0.713-0.38,1.363-0.683,2.071c-0.298,0.649-0.65,1.244-1.113,1.832
					c-0.406,0.591-0.866,1.125-1.378,1.602c-0.571,0.531-1.137,0.951-1.755,1.314c-0.62,0.419-1.24,0.728-1.908,0.98
					c-0.727,0.248-1.393,0.445-2.115,0.529C2087.139,1857.674,2086.423,1857.705,2085.708,1857.679z"/>
			</g>
		</g>
		<g>
			<g>
				<g>
					
						<linearGradient id="SVGID_00000029033752775781769380000003241092139330855356_" gradientUnits="userSpaceOnUse" x1="-705.9951" y1="3241.6089" x2="-528.7614" y2="3241.6089" gradientTransform="matrix(-1 0 0 1 2198.3259 0)">
						<stop  offset="0" style="stop-color:#4F52FF"/>
						<stop  offset="1" style="stop-color:#4042E2"/>
					</linearGradient>
					<path style="fill:url(#SVGID_00000029033752775781769380000003241092139330855356_);" d="M2732.092,3233.036
						c30.363,2.625,83.057,6.888,124.6,8.717c24.972,1.099,39.349-1.346,47.629-4.661c-0.013,0.933-0.04,1.815-0.077,2.635
						c-0.196,4.371-3.748,7.869-8.164,8.115c-78.496,4.381-140.925,1.517-163.149,0.163c-4.596-0.279-7.335-5.273-4.985-9.191
						C2729.122,3236.854,2730.546,3234.935,2732.092,3233.036z"/>
					
						<linearGradient id="SVGID_00000104705754885034125460000000326625699295733144_" gradientUnits="userSpaceOnUse" x1="-706.0052" y1="3206.8738" x2="-533.7662" y2="3206.8738" gradientTransform="matrix(-1 0 0 1 2198.3259 0)">
						<stop  offset="0" style="stop-color:#09005D"/>
						<stop  offset="1" style="stop-color:#1A0F91"/>
					</linearGradient>
					<path style="fill:url(#SVGID_00000104705754885034125460000000326625699295733144_);" d="M2856.692,3241.753
						c-41.542-1.829-94.237-6.091-124.6-8.717c29.851-36.624,124.6-61.309,124.6-61.309h26.76
						c18.405,26.531,21.07,51.79,20.869,65.365C2896.041,3240.407,2881.664,3242.852,2856.692,3241.753z"/>
					
						<linearGradient id="SVGID_00000141441891784913934750000013538939863634145170_" gradientUnits="userSpaceOnUse" x1="-689.6326" y1="3158.3784" x2="-639.7095" y2="3158.3784" gradientTransform="matrix(-1 0 0 1 2198.3259 0)">
						<stop  offset="0" style="stop-color:#FEBBBA"/>
						<stop  offset="1" style="stop-color:#FF928E"/>
					</linearGradient>
					<path style="fill:url(#SVGID_00000141441891784913934750000013538939863634145170_);" d="M2887.958,3128.041l-2.504,49.555
						c-0.272,5.366-4.288,9.876-9.663,10.644c-5.347,0.764-12.508,0.862-20.102-1.667c-4.672-1.554-8.14-5.491-9.002-10.292
						l-8.653-48.24H2887.958z"/>
				</g>
				<g>
					<g>
						
							<linearGradient id="SVGID_00000123435823631886048850000016643114100480676787_" gradientUnits="userSpaceOnUse" x1="-1059.3253" y1="3237.7871" x2="-991.4066" y2="3237.7871" gradientTransform="matrix(-1 0 0 1 2198.3259 0)">
							<stop  offset="0" style="stop-color:#4F52FF"/>
							<stop  offset="1" style="stop-color:#4042E2"/>
						</linearGradient>
						<path style="fill:url(#SVGID_00000123435823631886048850000016643114100480676787_);" d="M3235.535,3241.381
							c13.167-1.836,19.124-8.677,21.622-15.989c0.016,0.065,0.033,0.132,0.049,0.197c1.937,7.714-2.553,15.708-11.531,19.51
							c-10.852,4.596-22.717,5.379-31.928,4.998c-9.883-0.407-18.953-4.497-23.939-11.041l-0.075-0.098
							C3199.652,3243.866,3213.577,3244.444,3235.535,3241.381z"/>
						
							<linearGradient id="SVGID_00000093141002474830176690000009827656150388238514_" gradientUnits="userSpaceOnUse" x1="-1058.8314" y1="3185.4917" x2="-959.1399" y2="3185.4917" gradientTransform="matrix(-1 0 0 1 2198.3259 0)">
							<stop  offset="0" style="stop-color:#09005D"/>
							<stop  offset="1" style="stop-color:#1A0F91"/>
						</linearGradient>
						<path style="fill:url(#SVGID_00000093141002474830176690000009827656150388238514_);" d="M3173.456,3127.723h22.068
							c33.615-0.687,54.724,70.213,61.634,97.669c-2.498,7.312-8.455,14.153-21.622,15.989c-21.958,3.063-35.883,2.485-45.802-2.423
							c-18.16-23.898-27.164-58.899-31.492-79.326C3153.318,3136.401,3173.456,3127.723,3173.456,3127.723z"/>
					</g>
					
						<linearGradient id="SVGID_00000069389259220452748400000016642161242097383342_" gradientUnits="userSpaceOnUse" x1="-1007.0132" y1="3116.7605" x2="-947.3503" y2="3116.7605" gradientTransform="matrix(-1 0 0 1 2198.3259 0)">
						<stop  offset="0" style="stop-color:#FEBBBA"/>
						<stop  offset="1" style="stop-color:#FF928E"/>
					</linearGradient>
					<path style="fill:url(#SVGID_00000069389259220452748400000016642161242097383342_);" d="M3192.688,3081.729l12.254,48.739
						c1.503,5.976-1.358,12.157-6.883,14.993c-6.855,3.518-16.508,7.215-25.377,6.144c-4.172-0.503-7.636-3.441-9.015-7.369
						l-17.991-51.279L3192.688,3081.729z"/>
				</g>
				
					<linearGradient id="SVGID_00000000916821728657166620000009101961723778351234_" gradientUnits="userSpaceOnUse" x1="3696.8989" y1="1329.3572" x2="2737.241" y2="3248.6692">
					<stop  offset="0" style="stop-color:#4F52FF"/>
					<stop  offset="1" style="stop-color:#4042E2"/>
				</linearGradient>
				<path style="fill:url(#SVGID_00000000916821728657166620000009101961723778351234_);" d="M3207.305,3095.816
					c-15.247,13.525-64.838,15.31-64.838,15.31c-178.633-428.738-251.706-489.646-251.706-489.646
					c25.792,161.825,4.158,520.086,4.158,520.086c-29.478,13.008-67.482,0-67.482,0c-2.394-264.929-43.115-495.974-91.22-678.124
					c120.735-2.713,184.94-44.028,205.904-60.61C3042.763,2565.085,3207.305,3095.816,3207.305,3095.816z"/>
				<path style="fill:#7D97F4;" d="M2911.46,1909.781c22.852,113.989,14.663,318.007,9.282,411.065
					c-1.512,26.156,16.747,62.416,31.505,87.153c2.315,3.881,0.885,8.849-3.133,10.914c-24.708,12.698-108.416,52.056-205.43,56.952
					c-6.469,0.327-12.245-4.08-13.92-10.335c-71.962-268.701-155.548-440.402-155.548-440.402
					C2666.498,1877.762,2911.46,1909.781,2911.46,1909.781z"/>
				
					<linearGradient id="SVGID_00000070800350010782477150000005602333510303613570_" gradientUnits="userSpaceOnUse" x1="2862.5833" y1="2551.1389" x2="3024.7781" y2="2330.3735">
					<stop  offset="0" style="stop-color:#4F52FF"/>
					<stop  offset="1" style="stop-color:#4042E2"/>
				</linearGradient>
				<path style="fill:url(#SVGID_00000070800350010782477150000005602333510303613570_);" d="M2878.572,2611.33
					c1.014,0,2.042-0.273,2.972-0.838c2.696-1.648,3.55-5.162,1.911-7.855c-0.961-1.581-24.068-38.929-70.828-61.489
					c-2.84-1.363-6.263-0.184-7.64,2.665c-1.372,2.843-0.178,6.268,2.668,7.637c43.591,21.034,65.807,56.779,66.028,57.137
					C2874.762,2610.352,2876.644,2611.33,2878.572,2611.33z"/>
				<g>
					
						<linearGradient id="SVGID_00000119804891892729060000000001186647066849862306_" gradientUnits="userSpaceOnUse" x1="-733.6691" y1="2247.094" x2="-946.0589" y2="2435.1699" gradientTransform="matrix(-1 0 0 1 2198.3259 0)">
						<stop  offset="0" style="stop-color:#FEBBBA"/>
						<stop  offset="1" style="stop-color:#FF928E"/>
					</linearGradient>
					<path style="fill:url(#SVGID_00000119804891892729060000000001186647066849862306_);" d="M3054.801,2236.927
						c-7.34,53.102-29.027,111.023-72.413,172.546l-16.492-13.444c0,0,19.039-77.245,8.215-164.908
						C3000.874,2225.9,3032.482,2231.281,3054.801,2236.927z"/>
					<path style="fill:#7D97F4;" d="M2885.936,2050.429l25.525-140.647c0,0,170.542,130.361,143.341,327.145
						c-22.319-5.646-53.927-11.027-80.69-5.806C2966.314,2167.971,2943.026,2099.416,2885.936,2050.429z"/>
				</g>
				<g>
					<path style="fill:#7D97F4;" d="M2593.057,1997.576l59.443,144.984c-50.452,69.956-178.371,91.309-228.672,79.942
						c16.028-35.698,22.517-68.078,24.962-91.594C2535.767,2103.977,2593.057,1997.576,2593.057,1997.576z"/>
					
						<linearGradient id="SVGID_00000005960265663746587710000013449521254543808686_" gradientUnits="userSpaceOnUse" x1="10.993" y1="1932.2784" x2="-257.4983" y2="2236.5681" gradientTransform="matrix(-1 0 0 1 2198.3259 0)">
						<stop  offset="0" style="stop-color:#FEBBBA"/>
						<stop  offset="1" style="stop-color:#FF928E"/>
					</linearGradient>
					<path style="fill:url(#SVGID_00000005960265663746587710000013449521254543808686_);" d="M2448.79,2130.908
						c-2.445,23.517-8.934,55.896-24.962,91.594c-140.663-18.531-138.286-115.346-138.286-115.346l16.441-8.22
						C2347.605,2130.556,2411.79,2142.365,2448.79,2130.908z"/>
				</g>
				
					<linearGradient id="SVGID_00000060026671058670050360000007305690141575053724_" gradientUnits="userSpaceOnUse" x1="-498.1053" y1="1817.8877" x2="-499.9321" y2="2130.2451" gradientTransform="matrix(-1 0 0 1 2198.3259 0)">
					<stop  offset="0" style="stop-color:#FEBBBA"/>
					<stop  offset="1" style="stop-color:#FF928E"/>
				</linearGradient>
				<path style="fill:url(#SVGID_00000060026671058670050360000007305690141575053724_);" d="M2634.866,1850.098l31.781,116.828
					c3.57,13.125,17.766,20.173,30.395,15.123c13.629-5.449,30.92-12.885,45.805-20.921c15.89-8.578,20.861-29.017,10.803-44.014
					l-66.073-98.519L2634.866,1850.098z"/>
			</g>
			<g>
				
					<linearGradient id="SVGID_00000034080731483233475630000008216657365166023823_" gradientUnits="userSpaceOnUse" x1="-872.4036" y1="2500.5728" x2="-1026.1553" y2="2703.9739" gradientTransform="matrix(-0.7818 -0.6235 -0.6235 0.7818 3534.0215 -760.9076)">
					<stop  offset="0" style="stop-color:#FEBBBA"/>
					<stop  offset="1" style="stop-color:#FF928E"/>
				</linearGradient>
				<path style="fill:url(#SVGID_00000034080731483233475630000008216657365166023823_);" d="M2633.923,1718.476
					c-1.263,1.585-44.515,128.433-44.515,128.433l72.952,23.157l58.856-114.136
					C2721.217,1755.931,2655.082,1691.946,2633.923,1718.476z"/>
				
					<linearGradient id="SVGID_00000085934675469493067210000004296571569631857807_" gradientUnits="userSpaceOnUse" x1="2816.5173" y1="1668.8552" x2="2505.6416" y2="1878.3582">
					<stop  offset="0" style="stop-color:#4F52FF"/>
					<stop  offset="1" style="stop-color:#4042E2"/>
				</linearGradient>
				<path style="fill:url(#SVGID_00000085934675469493067210000004296571569631857807_);" d="M2692.286,1772.099l-26.278,62.51
					c-0.336,0.802-0.768,1.536-1.309,2.216c-3.313,4.166-15.762,17.662-28.793,4.083c-11.825-12.321-22.801-23.389-33.387-25.902
					c-4.754-1.129-9.579,1.53-11.154,6.155c-3.927,11.526-12.294,37.662-16.1,61.48c-0.772,4.833,2.327,9.423,7.073,10.616
					c14.303,3.595,44.681,10.333,70.389,10.03c3.484-0.042,6.658-1.944,8.291-5.022c7.96-15.003,32.32-60.515,41.07-72.147
					c8.213-10.919,26.695-9.515,34.413-8.372c2.531,0.374,5.08-0.299,7.099-1.869c7.136-5.552,20.946-19.985,3.84-39.235
					c-3.58-4.029-3.117-10.162,1.018-13.617c8.234-6.88,17.343-19.404,5.287-36.306c-12.253-17.179-29.851-15.592-40.768-12.319
					c-4.414,1.323-9.021-0.779-11.139-4.872c-1.205-2.331-3.437-4.171-7.504-4.061c-5.479,0.149-9.795-4.668-9.376-10.132
					c0.805-10.499-2.178-23.997-20.077-30.74c-31.761-11.966-53.767,18.104-57.133,41.309c-3.366,23.205,31.806,34.22,52.888,33.877
					c16.029-0.26,26.95,16.252,31.265,24.182C2693.267,1766.474,2693.394,1769.463,2692.286,1772.099z"/>
				
					<linearGradient id="SVGID_00000092417900699957661060000012128750487225619126_" gradientUnits="userSpaceOnUse" x1="-1097.5894" y1="2661.6501" x2="-974.2676" y2="2535.1252" gradientTransform="matrix(-0.7818 -0.6235 -0.6235 0.7818 3534.0215 -760.9076)">
					<stop  offset="0" style="stop-color:#FEBBBA"/>
					<stop  offset="1" style="stop-color:#FF928E"/>
				</linearGradient>
				<path style="fill:url(#SVGID_00000092417900699957661060000012128750487225619126_);" d="M2692.293,1848.781
					c0,0,7.599-40.181,24.558-41.177c16.958-0.997,32.541,13.806,14.463,35.549
					C2708.829,1870.2,2692.293,1848.781,2692.293,1848.781z"/>
			</g>
			
				<linearGradient id="SVGID_00000145777364555626313260000016257336975810478496_" gradientUnits="userSpaceOnUse" x1="-649.7966" y1="2341.811" x2="-862.1851" y2="2529.8857" gradientTransform="matrix(-1 0 0 1 2198.3259 0)">
				<stop  offset="0" style="stop-color:#FEBBBA"/>
				<stop  offset="1" style="stop-color:#FF928E"/>
			</linearGradient>
			<path style="fill:url(#SVGID_00000145777364555626313260000016257336975810478496_);" d="M2972.697,2393.688l-76.985-6.275
				l-33.339,30.734c0,0,7.887,10.902,32.547,4.635c24.659-6.267,58.438-7.804,58.438-7.804s34.042,15.347,34.457-13.369
				L2972.697,2393.688z"/>
			<g>
				
					<linearGradient id="SVGID_00000179640339116437738010000012587132370534147719_" gradientUnits="userSpaceOnUse" x1="36.9452" y1="1967.2017" x2="-225.0743" y2="2264.1567" gradientTransform="matrix(-1 0 0 1 2198.3259 0)">
					<stop  offset="0" style="stop-color:#FEBBBA"/>
					<stop  offset="1" style="stop-color:#FF928E"/>
				</linearGradient>
				<path style="fill:url(#SVGID_00000179640339116437738010000012587132370534147719_);" d="M2287.384,2121.037
					c0.562,5.201,20.262,4.873,21.883-18.116c-3.58-9.111-14.934-49.887-23.483-54.843
					c-45.537-26.398-122.161-50.935-122.161-50.935c-5.309,13.311,6.355,18.998,6.355,18.998l39.052,16.202
					c-1.173,12.594-4.27,24.147-2.11,37.814c1.635,10.35,7.465,19.624,15.856,26.022c8.421,6.421,19.67,14.636,29.521,20.606
					C2270.939,2128.089,2287.384,2121.037,2287.384,2121.037z"/>
				
					<linearGradient id="SVGID_00000044865745025482073830000007107179685110872214_" gradientUnits="userSpaceOnUse" x1="-77.9336" y1="2062.6238" x2="-37.4121" y2="2080.3604" gradientTransform="matrix(-1 0 0 1 2198.3259 0)">
					<stop  offset="0" style="stop-color:#F9B776"/>
					<stop  offset="1" style="stop-color:#F47960"/>
				</linearGradient>
				<path style="fill:url(#SVGID_00000044865745025482073830000007107179685110872214_);" d="M2266.3,2107.288
					c-0.248-0.376-25.171-37.534-34.127-43.755c-4.828-3.354-7.418-6.724-7.92-10.301c-0.413-2.948,0.614-5.88,3.138-8.964
					l0.713-0.871l35.015,10.472l17.008,17.588l-2.429,2.35l-16.394-16.955l-31.976-9.561c-1.403,1.965-1.967,3.763-1.729,5.473
					c0.356,2.556,2.544,5.245,6.501,7.994c9.477,6.583,33.972,43.098,35.011,44.649L2266.3,2107.288z"/>
			</g>
		</g>
		<g>
			<path style="fill:#FFFFFF;" d="M1217.823,1637.453l4.442,9.046l0.031,0.064c1.264,2.573,0.201,5.682-2.371,6.946
				c-2.574,1.263-5.684,0.201-6.946-2.372c-0.015-0.029-0.04-0.082-0.053-0.111l-4.285-9.276c-1.173-2.542-0.064-5.554,2.477-6.727
				c2.503-1.157,5.461-0.098,6.672,2.361L1217.823,1637.453z"/>
			<path style="fill:#FFFFFF;" d="M1233.098,1667.352l4.839,8.826l0.036,0.065c1.485,2.708,0.493,6.106-2.214,7.592
				c-2.707,1.485-6.106,0.493-7.591-2.214c-0.018-0.031-0.046-0.087-0.063-0.117l-4.697-9.07c-1.389-2.683-0.342-5.984,2.341-7.374
				c2.642-1.368,5.884-0.372,7.309,2.221L1233.098,1667.352z"/>
			<path style="fill:#FFFFFF;" d="M1249.682,1696.502l5.224,8.593l0.041,0.067c1.719,2.829,0.82,6.516-2.008,8.235
				c-2.83,1.719-6.516,0.821-8.235-2.008c-0.02-0.032-0.054-0.09-0.073-0.123l-5.097-8.851c-1.619-2.811-0.652-6.401,2.158-8.02
				c2.769-1.593,6.293-0.68,7.944,2.033L1249.682,1696.502z"/>
			<path style="fill:#FFFFFF;" d="M1267.528,1724.865l5.593,8.35l0.045,0.068c1.967,2.934,1.18,6.907-1.754,8.873
				c-2.935,1.965-6.908,1.18-8.873-1.755c-0.021-0.034-0.061-0.094-0.083-0.128l-5.481-8.621c-1.859-2.924-0.996-6.801,1.929-8.66
				c2.879-1.831,6.684-1.021,8.573,1.797L1267.528,1724.865z"/>
			<path style="fill:#FFFFFF;" d="M1286.586,1752.407l5.946,8.096l0.051,0.07c2.223,3.025,1.571,7.279-1.455,9.502
				c-3.026,2.222-7.28,1.571-9.502-1.455c-0.025-0.035-0.069-0.096-0.094-0.131l-5.851-8.379c-2.112-3.022-1.373-7.184,1.65-9.295
				c2.976-2.079,7.058-1.394,9.197,1.515L1286.586,1752.407z"/>
			<path style="fill:#FFFFFF;" d="M1306.808,1779.09l6.285,7.832l0.058,0.07c2.488,3.101,1.991,7.632-1.109,10.12
				c-3.1,2.489-7.633,1.992-10.121-1.108c-0.028-0.036-0.078-0.099-0.106-0.135l-6.209-8.124c-2.373-3.106-1.779-7.547,1.326-9.92
				c3.059-2.337,7.413-1.797,9.811,1.186L1306.808,1779.09z"/>
			<path style="fill:#FFFFFF;" d="M1328.143,1804.88l6.61,7.557l0.063,0.071c2.764,3.16,2.444,7.962-0.716,10.725
				c-3.16,2.764-7.961,2.443-10.724-0.717c-0.033-0.036-0.087-0.101-0.119-0.137l-6.55-7.859c-2.645-3.173-2.218-7.889,0.955-10.534
				c3.125-2.604,7.746-2.229,10.411,0.813L1328.143,1804.88z"/>
			<path style="fill:#FFFFFF;" d="M1350.544,1829.739l6.922,7.271l0.068,0.072c3.047,3.201,2.922,8.266-0.279,11.314
				c-3.203,3.047-8.268,2.922-11.314-0.28c-0.036-0.036-0.096-0.102-0.13-0.14l-6.88-7.581c-2.925-3.223-2.683-8.207,0.539-11.132
				c3.175-2.88,8.057-2.689,10.997,0.395L1350.544,1829.739z"/>
			<path style="fill:#FFFFFF;" d="M1373.964,1853.634l7.217,6.975l0.073,0.071c3.338,3.226,3.429,8.547,0.203,11.884
				c-3.226,3.338-8.545,3.429-11.883,0.203c-0.038-0.037-0.106-0.103-0.142-0.14l-7.195-7.293c-3.212-3.256-3.178-8.5,0.079-11.713
				c3.206-3.164,8.34-3.178,11.564-0.068L1373.964,1853.634z"/>
			<path style="fill:#FFFFFF;" d="M1398.351,1876.527l7.497,6.667l0.081,0.072c3.633,3.231,3.96,8.797,0.728,12.432
				c-3.23,3.634-8.797,3.96-12.432,0.729c-0.041-0.037-0.114-0.103-0.153-0.141l-7.497-6.992c-3.508-3.272-3.698-8.767-0.427-12.274
				c3.222-3.454,8.601-3.693,12.114-0.574L1398.351,1876.527z"/>
			<path style="fill:#FFFFFF;" d="M1423.66,1898.385l7.765,6.35l0.086,0.071c3.937,3.219,4.519,9.02,1.3,12.957
				c-3.219,3.936-9.02,4.518-12.957,1.298c-0.044-0.036-0.124-0.103-0.168-0.14l-7.784-6.681c-3.808-3.268-4.245-9.005-0.977-12.812
				c3.217-3.75,8.83-4.232,12.637-1.124L1423.66,1898.385z"/>
			<path style="fill:#FFFFFF;" d="M1449.843,1919.172l8.017,6.021l0.094,0.07c4.244,3.187,5.1,9.211,1.912,13.454
				c-3.186,4.244-9.21,5.1-13.453,1.913c-0.05-0.036-0.134-0.102-0.182-0.139l-8.058-6.357c-4.113-3.245-4.818-9.211-1.572-13.324
				c3.196-4.052,9.03-4.796,13.135-1.718L1449.843,1919.172z"/>
			<path style="fill:#FFFFFF;" d="M1476.849,1938.85l8.256,5.682l0.099,0.068c4.556,3.135,5.706,9.368,2.572,13.923
				c-3.135,4.554-9.368,5.706-13.924,2.571c-0.051-0.036-0.142-0.101-0.193-0.137l-8.319-6.021
				c-4.424-3.203-5.415-9.386-2.213-13.81c3.155-4.357,9.198-5.383,13.607-2.354L1476.849,1938.85z"/>
			<path style="fill:#FFFFFF;" d="M1504.63,1957.384l8.479,5.331l0.107,0.068c4.869,3.062,6.332,9.49,3.272,14.358
				c-3.062,4.869-9.49,6.333-14.358,3.272c-0.056-0.035-0.153-0.098-0.208-0.134l-8.565-5.674
				c-4.739-3.139-6.034-9.524-2.896-14.262c3.092-4.667,9.332-5.994,14.046-3.036L1504.63,1957.384z"/>
			<path style="fill:#FFFFFF;" d="M1533.138,1974.736l8.687,4.971l0.114,0.065c5.184,2.967,6.982,9.574,4.016,14.758
				c-2.965,5.184-9.573,6.982-14.757,4.016c-0.059-0.034-0.163-0.096-0.221-0.13l-8.797-5.314
				c-5.054-3.054-6.676-9.627-3.622-14.681c3.006-4.978,9.428-6.627,14.45-3.759L1533.138,1974.736z"/>
			<path style="fill:#FFFFFF;" d="M1562.322,1990.871l8.88,4.598l0.122,0.064c5.501,2.848,7.651,9.617,4.803,15.118
				s-9.618,7.652-15.118,4.803c-0.063-0.033-0.173-0.092-0.234-0.125l-9.015-4.943c-5.372-2.946-7.339-9.689-4.394-15.062
				c2.902-5.291,9.486-7.279,14.817-4.524L1562.322,1990.871z"/>
			<path style="fill:#FFFFFF;" d="M1592.133,2005.755l9.06,4.216l0.13,0.06c5.818,2.708,8.339,9.618,5.631,15.436
				c-2.708,5.817-9.617,8.339-15.435,5.631c-0.068-0.031-0.183-0.087-0.249-0.12l-9.22-4.56c-5.691-2.815-8.024-9.71-5.209-15.401
				c2.772-5.605,9.502-7.951,15.142-5.333L1592.133,2005.755z"/>
			<path style="fill:#FFFFFF;" d="M1622.523,2019.35l9.223,3.821l0.139,0.058c6.133,2.542,9.043,9.574,6.502,15.707
				c-2.543,6.132-9.573,9.043-15.706,6.501c-0.071-0.029-0.195-0.082-0.264-0.112l-9.41-4.165c-6.009-2.66-8.723-9.686-6.063-15.695
				c2.619-5.917,9.472-8.641,15.42-6.182L1622.523,2019.35z"/>
			<path style="fill:#FFFFFF;" d="M1653.44,2031.621l9.37,3.417l0.147,0.054c6.446,2.351,9.764,9.481,7.413,15.926
				c-2.349,6.445-9.48,9.764-15.925,7.414c-0.074-0.027-0.203-0.077-0.277-0.104l-9.584-3.757
				c-6.324-2.478-9.443-9.615-6.963-15.939c2.44-6.229,9.398-9.346,15.65-7.072L1653.44,2031.621z"/>
			<path style="fill:#FFFFFF;" d="M1684.83,2042.53l9.504,3.003l0.157,0.05c6.752,2.134,10.497,9.339,8.364,16.092
				c-2.135,6.752-9.339,10.497-16.092,8.364c-0.078-0.025-0.213-0.07-0.29-0.096l-9.746-3.337
				c-6.636-2.272-10.175-9.494-7.903-16.13c2.237-6.536,9.276-10.066,15.828-8.002L1684.83,2042.53z"/>
			<path style="fill:#FFFFFF;" d="M1716.646,2052.046l9.619,2.577l0.165,0.044c7.055,1.89,11.243,9.142,9.352,16.198
				c-1.889,7.055-9.142,11.242-16.198,9.352c-0.081-0.021-0.223-0.062-0.302-0.085l-9.893-2.905
				c-6.943-2.038-10.919-9.32-8.88-16.263c2.008-6.837,9.099-10.797,15.947-8.969L1716.646,2052.046z"/>
			<path style="fill:#FFFFFF;" d="M1748.834,2060.133l9.718,2.142l0.175,0.039c7.35,1.619,11.995,8.89,10.376,16.24
				c-1.62,7.35-8.892,11.995-16.24,10.376c-0.084-0.018-0.233-0.054-0.317-0.073l-10.022-2.46
				c-7.243-1.778-11.675-9.09-9.896-16.334c1.751-7.134,8.868-11.539,16.003-9.973L1748.834,2060.133z"/>
		</g>
		<g>
			<path style="fill:#FFFFFF;" d="M1095.111,2147.115l10.063,1.142c2.902,0.323,4.994,2.937,4.673,5.84
				c-0.323,2.903-2.937,4.994-5.841,4.672c-0.068-0.007-0.17-0.021-0.238-0.031l-10.028-1.578c-2.767-0.436-4.656-3.03-4.221-5.796
				C1089.941,2148.673,1092.431,2146.815,1095.111,2147.115z"/>
			<path style="fill:#FFFFFF;" d="M1128.661,2150.826l10.068,1.079c3.293,0.345,5.684,3.295,5.339,6.589
				c-0.345,3.293-3.295,5.683-6.588,5.338c-0.071-0.007-0.178-0.021-0.247-0.031l-10.047-1.477
				c-3.168-0.466-5.357-3.411-4.892-6.579C1122.747,2152.656,1125.585,2150.5,1128.661,2150.826z"/>
			<path style="fill:#FFFFFF;" d="M1162.219,2154.411l10.069,1.033c3.594,0.36,6.214,3.564,5.854,7.156
				c-0.36,3.594-3.564,6.215-7.157,5.855c-0.059-0.007-0.163-0.019-0.223-0.026l-10.063-1.359c-3.49-0.472-5.937-3.683-5.465-7.172
				C1155.696,2156.48,1158.813,2154.065,1162.219,2154.411z"/>
			<path style="fill:#FFFFFF;" d="M1195.795,2157.758l10.076,0.95c3.894,0.358,6.761,3.806,6.403,7.699
				c-0.358,3.895-3.805,6.761-7.7,6.403c-0.064-0.007-0.178-0.019-0.243-0.027l-10.074-1.278c-3.79-0.481-6.473-3.943-5.993-7.733
				c0.47-3.712,3.803-6.362,7.501-6.018L1195.795,2157.758z"/>
			<path style="fill:#FFFFFF;" d="M1229.393,2160.831l10.083,0.869l0.018,0.002c4.194,0.361,7.303,4.055,6.941,8.25
				c-0.361,4.195-4.056,7.302-8.25,6.941c-0.071-0.007-0.175-0.017-0.244-0.025l-10.086-1.196c-4.092-0.485-7.016-4.195-6.531-8.287
				c0.475-4.008,4.046-6.894,8.035-6.555L1229.393,2160.831z"/>
			<path style="fill:#FFFFFF;" d="M1263.004,2163.691l10.083,0.85l0.02,0.002c4.425,0.373,7.71,4.262,7.337,8.688
				c-0.373,4.425-4.263,7.711-8.689,7.338c-0.038-0.003-0.119-0.011-0.157-0.015l-10.103-1.052
				c-4.362-0.454-7.532-4.358-7.078-8.721c0.449-4.308,4.262-7.452,8.558-7.093L1263.004,2163.691z"/>
			<path style="fill:#FFFFFF;" d="M1296.619,2166.427l10.089,0.768l0.02,0.001c4.61,0.351,8.065,4.373,7.714,8.985
				c-0.352,4.611-4.374,8.064-8.984,7.714c-0.041-0.003-0.124-0.011-0.163-0.014l-10.112-0.969
				c-4.549-0.436-7.882-4.476-7.446-9.025c0.431-4.491,4.376-7.799,8.854-7.461L1296.619,2166.427z"/>
			<path style="fill:#FFFFFF;" d="M1330.255,2168.891l10.093,0.686l0.021,0.001c4.796,0.326,8.42,4.479,8.095,9.275
				c-0.327,4.795-4.478,8.42-9.274,8.095c-0.043-0.003-0.129-0.01-0.172-0.014l-10.119-0.887c-4.735-0.415-8.236-4.589-7.821-9.323
				c0.409-4.675,4.485-8.148,9.146-7.835L1330.255,2168.891z"/>
			<path style="fill:#FFFFFF;" d="M1363.906,2171.08l10.098,0.604l0.022,0.001c4.981,0.298,8.778,4.578,8.481,9.559
				c-0.299,4.981-4.577,8.779-9.56,8.481c-0.043-0.002-0.132-0.009-0.177-0.012l-10.127-0.805c-4.92-0.391-8.591-4.696-8.2-9.616
				c0.386-4.858,4.589-8.499,9.431-8.213L1363.906,2171.08z"/>
			<path style="fill:#FFFFFF;" d="M1397.569,2172.997l10.103,0.521l0.021,0.001c5.168,0.267,9.139,4.671,8.872,9.838
				c-0.266,5.167-4.671,9.139-9.837,8.872c-0.046-0.001-0.139-0.008-0.183-0.011l-10.135-0.723
				c-5.105-0.365-8.949-4.798-8.585-9.904c0.36-5.042,4.688-8.853,9.712-8.597L1397.569,2172.997z"/>
			<path style="fill:#FFFFFF;" d="M1431.246,2174.639l10.104,0.439l0.023,0.001c5.352,0.234,9.502,4.76,9.269,10.112
				c-0.233,5.351-4.76,9.5-10.111,9.268c-0.048-0.002-0.143-0.008-0.191-0.01l-10.141-0.64c-5.291-0.334-9.309-4.895-8.976-10.185
				c0.33-5.224,4.782-9.208,9.987-8.986L1431.246,2174.639z"/>
			<path style="fill:#FFFFFF;" d="M1464.928,2176.091l10.106,0.406l0.025,0.001c5.461,0.219,9.712,4.825,9.492,10.287
				c-0.219,5.462-4.824,9.712-10.286,9.493l-0.101-0.004l-10.149-0.51c-5.432-0.273-9.613-4.897-9.34-10.328
				c0.272-5.396,4.838-9.559,10.223-9.344L1464.928,2176.091z"/>
			<path style="fill:#FFFFFF;" d="M1498.616,2177.348l10.109,0.323l0.023,0.001c5.559,0.178,9.919,4.828,9.741,10.385
				c-0.178,5.558-4.828,9.919-10.385,9.741l-0.101-0.004l-10.154-0.427c-5.527-0.233-9.819-4.902-9.586-10.429
				c0.231-5.491,4.841-9.763,10.322-9.59L1498.616,2177.348z"/>
			<path style="fill:#FFFFFF;" d="M1532.313,2178.33l10.109,0.242h0.025c5.653,0.135,10.126,4.827,9.992,10.48
				c-0.135,5.653-4.828,10.126-10.48,9.99l-0.104-0.002l-10.155-0.345c-5.623-0.191-10.027-4.904-9.835-10.527
				c0.19-5.586,4.843-9.97,10.418-9.838L1532.313,2178.33z"/>
			<path style="fill:#FFFFFF;" d="M1566.013,2179.039l10.111,0.173l0.026,0.001c5.738,0.098,10.312,4.831,10.213,10.571
				c-0.097,5.739-4.831,10.313-10.569,10.214l-0.076-0.001l-10.16-0.248c-5.719-0.14-10.241-4.889-10.101-10.607
				c0.139-5.692,4.844-10.199,10.527-10.103H1566.013z"/>
			<path style="fill:#FFFFFF;" d="M1599.716,2179.567l10.111,0.112h0.026c5.771,0.063,10.398,4.794,10.335,10.565
				c-0.064,5.771-4.793,10.399-10.565,10.335l-0.036-0.001l-10.162-0.146c-5.761-0.083-10.365-4.82-10.282-10.582
				c0.082-5.762,4.821-10.366,10.583-10.283H1599.716z"/>
			<path style="fill:#FFFFFF;" d="M1633.421,2179.842l10.112,0.029h0.026c5.803,0.017,10.494,4.735,10.477,10.537
				c-0.017,5.803-4.735,10.494-10.538,10.477h-0.035l-10.164-0.063c-5.793-0.035-10.461-4.762-10.424-10.555
				c0.036-5.794,4.762-10.461,10.555-10.425H1633.421z"/>
			<path style="fill:#FFFFFF;" d="M1667.128,2179.842l10.111-0.053h0.026c5.834-0.031,10.589,4.673,10.619,10.508
				c0.031,5.834-4.674,10.588-10.509,10.619l-0.035,0.001l-10.164,0.019c-5.824,0.012-10.555-4.701-10.566-10.526
				c-0.012-5.825,4.701-10.556,10.527-10.568H1667.128z"/>
			<path style="fill:#FFFFFF;" d="M1700.831,2179.569l10.111-0.136h0.026c5.864-0.078,10.683,4.612,10.761,10.477
				c0.079,5.865-4.612,10.683-10.477,10.762h-0.035l-10.164,0.102c-5.856,0.059-10.65-4.64-10.708-10.496
				c-0.059-5.855,4.64-10.65,10.495-10.709H1700.831z"/>
		</g>
		<g>
			<path style="fill:#FFFFFF;" d="M1774.602,2302.164l-9.21,3.961l-0.107,0.045c-5.542,2.385-11.969-0.177-14.354-5.719
				c-2.353-5.471,0.122-11.808,5.516-14.265l9.334-4.243c5.547-2.521,12.088-0.069,14.609,5.478
				c2.521,5.546,0.068,12.086-5.478,14.607c-0.051,0.024-0.104,0.046-0.155,0.069L1774.602,2302.164z"/>
			<path style="fill:#FFFFFF;" d="M1744.059,2315.738l-9.073,4.276l-0.099,0.047c-5.286,2.492-11.591,0.227-14.082-5.059
				c-2.46-5.217-0.274-11.433,4.864-13.989l9.179-4.557c5.285-2.624,11.698-0.467,14.323,4.819
				c2.625,5.285,0.467,11.699-4.818,14.323c-0.049,0.025-0.099,0.049-0.148,0.073L1744.059,2315.738z"/>
			<path style="fill:#FFFFFF;" d="M1713.989,2330.351l-8.924,4.583l-0.096,0.049c-5.027,2.583-11.198,0.6-13.78-4.429
				c-2.549-4.963-0.642-11.044,4.244-13.684l9.012-4.865c5.027-2.712,11.301-0.836,14.011,4.189
				c2.713,5.026,0.838,11.299-4.188,14.011c-0.048,0.026-0.094,0.05-0.142,0.074L1713.989,2330.351z"/>
			<path style="fill:#FFFFFF;" d="M1684.421,2345.982l-8.769,4.884l-0.089,0.05c-4.772,2.658-10.796,0.945-13.454-3.828
				c-2.623-4.71-0.979-10.645,3.653-13.354l8.84-5.163c4.767-2.784,10.888-1.177,13.672,3.589c2.785,4.767,1.178,10.888-3.59,13.672
				c-0.043,0.026-0.087,0.052-0.132,0.077L1684.421,2345.982z"/>
			<path style="fill:#FFFFFF;" d="M1655.38,2362.607l-8.603,5.178l-0.084,0.05c-4.518,2.718-10.383,1.26-13.1-3.257
				c-2.683-4.458-1.289-10.235,3.09-12.998l8.659-5.455c4.509-2.841,10.469-1.488,13.31,3.021c2.84,4.509,1.488,10.468-3.023,13.309
				c-0.041,0.026-0.082,0.052-0.125,0.077L1655.38,2362.607z"/>
			<path style="fill:#FFFFFF;" d="M1626.901,2380.202l-8.43,5.465l-0.078,0.051c-4.265,2.764-9.962,1.548-12.726-2.716
				c-2.727-4.208-1.569-9.819,2.559-12.621l8.471-5.739c4.254-2.883,10.04-1.771,12.922,2.483
				c2.883,4.254,1.771,10.041-2.483,12.923c-0.04,0.026-0.079,0.053-0.119,0.079L1626.901,2380.202z"/>
			<path style="fill:#FFFFFF;" d="M1599.014,2398.745l-8.248,5.744l-0.073,0.051c-4.014,2.795-9.533,1.808-12.328-2.205
				c-2.759-3.961-1.825-9.395,2.057-12.223l8.273-6.016c4.001-2.91,9.604-2.025,12.515,1.976c2.911,4.002,2.026,9.606-1.975,12.516
				c-0.038,0.027-0.076,0.054-0.112,0.08L1599.014,2398.745z"/>
			<path style="fill:#FFFFFF;" d="M1571.745,2418.212l-8.055,6.017l-0.069,0.051c-3.765,2.812-9.098,2.04-11.911-1.726
				c-2.775-3.717-2.052-8.965,1.587-11.805l8.065-6.284c3.752-2.925,9.165-2.253,12.091,1.5c2.924,3.753,2.252,9.166-1.501,12.09
				c-0.035,0.027-0.069,0.054-0.104,0.081L1571.745,2418.212z"/>
			<path style="fill:#FFFFFF;" d="M1545.126,2438.578l-7.855,6.282l-0.064,0.051c-3.521,2.817-8.659,2.245-11.475-1.276
				c-2.78-3.476-2.252-8.532,1.147-11.371l7.85-6.545c3.508-2.926,8.721-2.453,11.647,1.055c2.924,3.507,2.452,8.722-1.056,11.647
				c-0.033,0.027-0.066,0.054-0.099,0.08L1545.126,2438.578z"/>
			<path style="fill:#FFFFFF;" d="M1519.186,2459.822l-7.646,6.54l-0.059,0.051c-3.282,2.807-8.218,2.423-11.025-0.859
				c-2.772-3.239-2.427-8.094,0.738-10.92l7.626-6.799c3.267-2.912,8.276-2.625,11.188,0.642s2.625,8.275-0.642,11.188
				c-0.03,0.027-0.059,0.053-0.091,0.08L1519.186,2459.822z"/>
			<path style="fill:#FFFFFF;" d="M1493.955,2481.919l-7.428,6.792l-0.055,0.051c-3.047,2.786-7.775,2.575-10.561-0.472
				c-2.749-3.006-2.572-7.656,0.361-10.456l7.393-7.045c3.031-2.887,7.829-2.772,10.716,0.259c2.887,3.03,2.77,7.827-0.261,10.715
				c-0.028,0.027-0.056,0.054-0.084,0.08L1493.955,2481.919z"/>
			<path style="fill:#FFFFFF;" d="M1469.46,2504.846l-7.2,7.038l-0.051,0.05c-2.816,2.752-7.329,2.701-10.081-0.115
				c-2.718-2.779-2.696-7.218,0.011-9.979l7.156-7.285c2.8-2.85,7.378-2.891,10.23-0.092c2.849,2.799,2.891,7.379,0.091,10.23
				c-0.025,0.026-0.051,0.053-0.078,0.078L1469.46,2504.846z"/>
			<path style="fill:#FFFFFF;" d="M1445.733,2528.582l-6.963,7.275l-0.048,0.049c-2.592,2.708-6.885,2.802-9.593,0.209
				c-2.671-2.557-2.792-6.78-0.304-9.49l6.907-7.516c2.574-2.802,6.931-2.986,9.733-0.411c2.802,2.574,2.985,6.931,0.411,9.733
				c-0.023,0.025-0.048,0.051-0.073,0.077L1445.733,2528.582z"/>
			<path style="fill:#FFFFFF;" d="M1422.803,2553.101l-6.719,7.504l-0.045,0.05c-2.373,2.648-6.443,2.874-9.093,0.501
				c-2.614-2.341-2.863-6.342-0.587-8.994l6.649-7.738c2.354-2.742,6.486-3.054,9.227-0.7c2.74,2.354,3.054,6.486,0.698,9.227
				c-0.021,0.026-0.043,0.051-0.066,0.076L1422.803,2553.101z"/>
			<path style="fill:#FFFFFF;" d="M1400.701,2578.378l-6.466,7.728l-0.04,0.048c-2.16,2.581-6.002,2.922-8.585,0.764
				c-2.547-2.132-2.909-5.908-0.843-8.489l6.385-7.954c2.142-2.67,6.044-3.099,8.713-0.955c2.67,2.142,3.097,6.044,0.954,8.713
				c-0.02,0.025-0.04,0.05-0.059,0.074L1400.701,2578.378z"/>
			<path style="fill:#FFFFFF;" d="M1379.453,2604.393l-6.204,7.945l-0.036,0.046c-1.953,2.503-5.565,2.947-8.068,0.993
				c-2.47-1.929-2.93-5.478-1.064-7.976l6.11-8.164c1.937-2.587,5.605-3.115,8.192-1.178c2.589,1.937,3.117,5.605,1.18,8.192
				c-0.018,0.025-0.036,0.048-0.054,0.073L1379.453,2604.393z"/>
			<path style="fill:#FFFFFF;" d="M1359.093,2631.119l-5.932,8.152l-0.033,0.044c-1.755,2.414-5.135,2.947-7.548,1.191
				c-2.381-1.732-2.929-5.052-1.254-7.458l5.826-8.364c1.739-2.496,5.172-3.11,7.667-1.371c2.496,1.739,3.11,5.171,1.371,7.667
				c-0.016,0.023-0.033,0.046-0.049,0.069L1359.093,2631.119z"/>
			<path style="fill:#FFFFFF;" d="M1339.648,2658.531l-5.098,7.529l-0.026,0.04c-1.569,2.318-4.721,2.926-7.039,1.355
				c-2.287-1.548-2.906-4.643-1.412-6.951l4.994-7.712c1.549-2.392,4.745-3.075,7.139-1.526c2.392,1.549,3.075,4.747,1.526,7.139
				c-0.015,0.023-0.03,0.045-0.044,0.066L1339.648,2658.531z"/>
		</g>
		<g>
			<g>
				
					<ellipse transform="matrix(0.1127 -0.9936 0.9936 0.1127 -628.6555 2282.7268)" style="fill:#7D97F4;" cx="963.754" cy="1493.343" rx="257.523" ry="258.881"/>
				
					<ellipse transform="matrix(0.1127 -0.9936 0.9936 0.1127 -628.7216 2282.5933)" style="fill:#91B3FA;" cx="963.754" cy="1493.343" rx="248.96" ry="250.273"/>
				<path style="fill:#FFFFFF;" d="M1194.374,1510.591c-0.069,0-0.139-0.002-0.208-0.007c-1.861-0.112-3.28-1.713-3.168-3.575
					c0.574-9.527,0.544-19.161-0.086-28.635c-0.122-1.863,1.287-3.471,3.148-3.595c1.812-0.149,3.475,1.285,3.597,3.146
					c0.65,9.758,0.677,19.681,0.086,29.489C1197.635,1509.208,1196.146,1510.591,1194.374,1510.591z"/>
				<path style="fill:#FFFFFF;" d="M1180.462,1417.208c-1.369,0-2.66-0.841-3.168-2.201
					c-30.078-80.725-102.131-136.923-188.033-146.661c-13.714-1.554-27.584-1.879-41.229-0.975c-1.861,0.15-3.471-1.285-3.597-3.146
					c-0.122-1.863,1.287-3.471,3.148-3.595c14.048-0.936,28.329-0.599,42.436,1.002c88.447,10.027,162.635,67.893,193.61,151.017
					c0.65,1.749-0.241,3.694-1.986,4.346C1181.254,1417.138,1180.855,1417.208,1180.462,1417.208z"/>
			</g>
			<g>
				<path style="fill:#FFFFFF;" d="M1108.522,1479.229c0,17.285-2.761,33.099-8.282,47.444
					c-5.521,14.344-13.324,25.597-23.407,33.76c-10.083,8.162-21.786,12.244-35.11,12.244c-8.883,0-16.745-2.131-23.587-6.392
					c-6.842-4.261-11.763-9.873-14.764-16.835h-2.881c-12.964,15.484-29.468,23.227-49.514,23.227
					c-21.246,0-37.991-6.392-50.234-19.176c-12.243-12.784-18.365-30.279-18.365-52.485c0-25.327,8.042-45.733,24.127-61.218
					c16.085-15.484,37.091-23.227,63.018-23.227c10.323,0,21.696,0.99,34.12,2.971c12.423,1.98,22.656,4.351,30.699,7.112
					l-4.141,88.045c0,16.685,4.561,25.027,13.684,25.027c7.682,0,13.804-5.612,18.365-16.835
					c4.561-11.223,6.842-25.897,6.842-44.023c0-19.326-4.021-36.401-12.063-51.225c-8.042-14.824-19.356-26.137-33.94-33.94
					c-14.584-7.802-31.239-11.703-49.964-11.703c-24.247,0-45.313,4.981-63.198,14.944c-17.885,9.963-31.599,24.337-41.142,43.122
					c-9.543,18.785-14.314,40.482-14.314,65.089c0,33.13,8.853,58.547,26.558,76.252c17.705,17.705,43.362,26.558,76.972,26.558
					c12.724,0,26.708-1.41,41.952-4.231c15.244-2.821,30.249-6.932,45.013-12.334v34.57c-25.687,10.923-54.195,16.385-85.524,16.385
					c-45.613,0-81.173-12.003-106.681-36.01c-25.507-24.007-38.261-57.376-38.261-100.109c0-29.649,6.512-56.566,19.536-80.753
					c13.024-24.187,31.569-43.152,55.636-56.896c24.067-13.744,51.765-20.616,83.094-20.616c26.408,0,49.994,5.401,70.76,16.205
					c20.766,10.803,36.791,26.168,48.074,46.093C1102.881,1430.195,1108.522,1453.182,1108.522,1479.229z M924.149,1501.736
					c0,25.327,10.323,37.991,30.969,37.991c10.803,0,19.025-3.811,24.667-11.433s9.063-20.016,10.263-37.181l2.341-39.791
					c-6.122-1.32-13.024-1.981-20.706-1.981c-15.004,0-26.678,4.681-35.02,14.044
					C928.321,1472.747,924.149,1485.531,924.149,1501.736z"/>
			</g>
		</g>
		<g>
			<g>
				
					<ellipse transform="matrix(0.1126 -0.9936 0.9936 0.1126 -1834.5017 3722.4124)" style="fill:#7D97F4;" cx="1166.839" cy="2888.3" rx="257.523" ry="258.881"/>
				
					<ellipse transform="matrix(0.1127 -0.9936 0.9936 0.1127 -1834.5955 3722.075)" style="fill:#91B3FA;" cx="1166.839" cy="2888.3" rx="248.96" ry="250.273"/>
				<path style="fill:#FFFFFF;" d="M1397.459,2905.548c-0.069,0-0.139-0.002-0.208-0.007c-1.861-0.112-3.28-1.713-3.168-3.575
					c0.574-9.527,0.544-19.161-0.086-28.635c-0.122-1.863,1.287-3.472,3.148-3.595c1.835-0.178,3.471,1.285,3.597,3.146
					c0.65,9.758,0.677,19.681,0.086,29.49C1400.719,2904.165,1399.231,2905.548,1397.459,2905.548z"/>
				<path style="fill:#FFFFFF;" d="M1383.546,2812.165c-1.369,0-2.66-0.842-3.168-2.201
					c-30.078-80.725-102.131-136.923-188.034-146.661c-13.714-1.554-27.58-1.881-41.229-0.975c-1.838,0.162-3.472-1.284-3.597-3.146
					c-0.122-1.863,1.287-3.471,3.148-3.595c14.044-0.939,28.333-0.601,42.437,1.001c88.447,10.027,162.634,67.893,193.61,151.017
					c0.65,1.749-0.241,3.694-1.987,4.346C1384.338,2812.095,1383.939,2812.165,1383.546,2812.165z"/>
			</g>
			<g>
				<path style="fill:#FFFFFF;" d="M1038.456,2999.679c-7.6,0-14.677-2.81-20.033-7.977c-5.384-5.193-8.348-12.166-8.348-19.63
					v-152.617c0-15.551,13.031-28.419,29.049-28.685l252.375-4.202c7.627-0.026,14.708,2.702,20.053,7.957
					c5.26,5.174,8.157,12.091,8.157,19.473v148.146c0,15.14-12.456,27.906-27.768,28.455l-252.375,9.061
					C1039.194,2999.672,1038.823,2999.679,1038.456,2999.679z M1291.777,2803.375l-252.374,4.202
					c-6.903,0.115-12.52,5.443-12.52,11.877v152.617c0,2.862,1.141,5.538,3.211,7.534c2.303,2.226,5.454,3.355,8.87,3.26
					l252.373-9.06c6.377-0.23,11.565-5.459,11.565-11.661v-148.146c0-2.843-1.113-5.502-3.135-7.491
					C1297.659,2804.439,1294.904,2803.299,1291.777,2803.375L1291.777,2803.375z"/>
				<path style="fill:#FFFFFF;" d="M1166.376,2905.221c-7.595,0-15.156-2.527-21.381-7.616l-112.41-91.906
					c-3.593-2.938-4.125-8.233-1.187-11.824c2.938-3.594,8.235-4.126,11.826-1.188l112.409,91.906
					c6.526,5.341,16.035,5.04,22.606-0.702l109.164-95.272c3.501-3.046,8.806-2.685,11.859,0.808
					c3.051,3.496,2.69,8.804-0.806,11.857l-109.164,95.271C1182.686,2902.32,1174.512,2905.221,1166.376,2905.221z"/>
			</g>
		</g>
		<g>
			<g>
				
					<ellipse transform="matrix(0.1127 -0.9936 0.9936 0.1127 -1500.7421 2770.2515)" style="fill:#7D97F4;" cx="800.682" cy="2225.385" rx="257.523" ry="258.881"/>
				
					<ellipse transform="matrix(0.1127 -0.9936 0.9936 0.1127 -1500.7808 2770.0879)" style="fill:#91B3FA;" cx="800.682" cy="2225.385" rx="248.96" ry="250.273"/>
				<path style="fill:#FFFFFF;" d="M1031.301,2242.634c-0.069,0-0.139-0.002-0.208-0.007c-1.861-0.112-3.28-1.713-3.168-3.575
					c0.574-9.528,0.545-19.162-0.086-28.635c-0.122-1.863,1.287-3.471,3.148-3.595c1.808-0.144,3.475,1.285,3.597,3.146
					c0.65,9.756,0.676,19.679,0.086,29.489C1034.561,2241.251,1033.073,2242.634,1031.301,2242.634z"/>
				<path style="fill:#FFFFFF;" d="M1017.389,2149.251c-1.369,0-2.66-0.842-3.168-2.201
					c-30.082-80.728-102.131-136.925-188.034-146.661c-13.711-1.558-27.577-1.883-41.229-0.975
					c-1.865,0.157-3.471-1.285-3.597-3.146c-0.122-1.863,1.287-3.472,3.148-3.595c14.048-0.939,28.333-0.599,42.436,1.001
					c88.447,10.025,162.634,67.892,193.61,151.017c0.65,1.749-0.241,3.694-1.986,4.346
					C1018.181,2149.181,1017.781,2149.251,1017.389,2149.251z"/>
			</g>
			<g>
				<path style="fill:#FFFFFF;" d="M769.169,2283.534v-15.593c0-13.486,2.88-25.216,8.639-35.189
					c5.759-9.974,16.295-20.58,31.607-31.818c14.75-10.536,24.478-19.105,29.184-25.707c4.706-6.602,7.059-13.977,7.059-22.125
					c0-9.131-3.371-16.084-10.114-20.861c-6.743-4.776-16.155-7.164-28.236-7.164c-21.071,0-45.093,6.883-72.064,20.65
					l-22.968-46.146c31.326-17.559,64.549-26.339,99.668-26.339c28.938,0,51.941,6.954,69.009,20.861
					c17.068,13.907,25.602,32.45,25.602,55.628c0,15.452-3.512,28.798-10.536,40.036c-7.024,11.238-20.369,23.881-40.036,37.928
					c-13.486,9.974-22.02,17.559-25.602,22.757c-3.582,5.198-5.373,12.01-5.373,20.439v12.643H769.169z M762.426,2355.598
					c0-11.8,3.161-20.72,9.482-26.76c6.321-6.041,15.523-9.061,27.604-9.061c11.659,0,20.685,3.091,27.077,9.271
					c6.392,6.181,9.588,15.031,9.588,26.55c0,11.098-3.231,19.842-9.693,26.234c-6.462,6.392-15.452,9.587-26.971,9.587
					c-11.8,0-20.931-3.125-27.393-9.377C765.657,2375.792,762.426,2366.977,762.426,2355.598z"/>
			</g>
		</g>
	</g>
</g>
</svg>
